<?xml version="1.0" encoding="UTF-8" standalone="no"?><svg xmlns="http://www.w3.org/2000/svg" xmlns:xlink="http://www.w3.org/1999/xlink" contentStyleType="text/css" height="2349.6px" preserveAspectRatio="none" style="width:880px;height:2349px;background:#FFFFFF;" version="1.1" viewBox="0 0 880 2349" width="880px" zoomAndPan="magnify"><defs/><g><text fill="#000000" font-family="sans-serif" font-size="30.8" font-weight="bold" lengthAdjust="spacing" textLength="125.4" x="22" y="50.89">munidiff</text><path d="M105.6,152.1255 C105.6,165.3255 101.2,169.7255 88,169.7255 " fill="none" style="stroke:#181818;stroke-width:3.3000000000000003;"/><line style="stroke:#181818;stroke-width:3.3000000000000003;" x1="105.6" x2="105.6" y1="108.017" y2="152.1255"/><path d="M105.6,108.017 C105.6,94.817 110,90.417 123.2,90.417 " fill="none" style="stroke:#181818;stroke-width:3.3000000000000003;"/><line style="stroke:#181818;stroke-width:3.3000000000000003;" x1="123.2" x2="541.2" y1="90.417" y2="90.417"/><path d="M286,90.417 L286,83.817 L299.2,90.417 L286,97.017 L286,90.417 " fill="#181818" style="stroke:#181818;stroke-width:3.3000000000000003;"/><path d="M558.8,152.1255 C558.8,165.3255 563.2,169.7255 576.4,169.7255 " fill="none" style="stroke:#181818;stroke-width:3.3000000000000003;"/><line style="stroke:#181818;stroke-width:3.3000000000000003;" x1="558.8" x2="558.8" y1="108.017" y2="152.1255"/><path d="M541.2,90.417 C554.4,90.417 558.8,94.817 558.8,108.017 " fill="none" style="stroke:#181818;stroke-width:3.3000000000000003;"/><line style="stroke:#181818;stroke-width:3.3000000000000003;" x1="88" x2="121" y1="169.7255" y2="169.7255"/><line style="stroke:#181818;stroke-width:3.3000000000000003;" x1="543.4" x2="576.4" y1="169.7255" y2="169.7255"/><line style="stroke:#181818;stroke-width:3.3000000000000003;" x1="121" x2="121" y1="169.7255" y2="169.7255"/><rect fill="#F1F1F1" height="57.417" rx="11" ry="11" style="stroke:#181818;stroke-width:3.3000000000000003;" width="222.2" x="121" y="141.017"/><text fill="#000000" font-family="sans-serif" font-size="30.8" lengthAdjust="spacing" textLength="200.2" x="132" y="180.907">report_header</text><line style="stroke:#181818;stroke-width:3.3000000000000003;" x1="343.2" x2="387.2" y1="169.7255" y2="169.7255"/><path d="M404.8,152.1255 C404.8,165.3255 409.2,169.7255 422.4,169.7255 " fill="none" style="stroke:#181818;stroke-width:3.3000000000000003;"/><line style="stroke:#181818;stroke-width:3.3000000000000003;" x1="404.8" x2="404.8" y1="143.217" y2="152.1255"/><path d="M404.8,143.217 C404.8,130.017 409.2,125.617 422.4,125.617 " fill="none" style="stroke:#181818;stroke-width:3.3000000000000003;"/><line style="stroke:#181818;stroke-width:3.3000000000000003;" x1="420.2" x2="510.4" y1="125.617" y2="125.617"/><path d="M469.92,125.617 L469.92,119.017 L456.72,125.617 L469.92,132.217 L469.92,125.617 " fill="#181818" style="stroke:#181818;stroke-width:3.3000000000000003;"/><path d="M525.8,152.1255 C525.8,165.3255 521.4,169.7255 508.2,169.7255 " fill="none" style="stroke:#181818;stroke-width:3.3000000000000003;"/><line style="stroke:#181818;stroke-width:3.3000000000000003;" x1="525.8" x2="525.8" y1="143.217" y2="152.1255"/><path d="M508.2,125.617 C521.4,125.617 525.8,130.017 525.8,143.217 " fill="none" style="stroke:#181818;stroke-width:3.3000000000000003;"/><line style="stroke:#181818;stroke-width:3.3000000000000003;" x1="387.2" x2="420.2" y1="169.7255" y2="169.7255"/><line style="stroke:#181818;stroke-width:3.3000000000000003;" x1="510.4" x2="543.4" y1="169.7255" y2="169.7255"/><rect fill="#F1F1F1" height="57.417" rx="11" ry="11" style="stroke:#181818;stroke-width:3.3000000000000003;" width="90.2" x="420.2" y="141.017"/><text fill="#000000" font-family="sans-serif" font-size="30.8" lengthAdjust="spacing" textLength="68.2" x="431.2" y="180.907">hunk</text><ellipse cx="30.8" cy="169.7255" fill="none" rx="8.8" ry="8.8" style="stroke:#181818;stroke-width:4.4;"/><ellipse cx="642.4" cy="169.7255" fill="#181818" rx="8.8" ry="8.8" style="stroke:#181818;stroke-width:2.2;"/><line style="stroke:#181818;stroke-width:3.3000000000000003;" x1="39.6" x2="88" y1="169.7255" y2="169.7255"/><line style="stroke:#181818;stroke-width:3.3000000000000003;" x1="576.4" x2="633.6" y1="169.7255" y2="169.7255"/><path d="M600.6,169.7255 L600.6,163.1255 L613.8,169.7255 L600.6,176.3255 L600.6,169.7255 " fill="#181818" style="stroke:#181818;stroke-width:3.3000000000000003;"/><text fill="#000000" font-family="sans-serif" font-size="30.8" font-weight="bold" lengthAdjust="spacing" textLength="211.2" x="22" y="260.324">report_header</text><line style="stroke:#181818;stroke-width:3.3000000000000003;" x1="88" x2="88" y1="317.5595" y2="317.5595"/><rect fill="none" height="57.417" style="stroke:#181818;stroke-width:1.1;" width="55" x="88" y="288.851"/><text fill="#000000" font-family="sans-serif" font-size="30.8" lengthAdjust="spacing" textLength="33" x="99" y="328.741">---</text><line style="stroke:#181818;stroke-width:3.3000000000000003;" x1="143" x2="187" y1="317.5595" y2="317.5595"/><rect fill="#F1F1F1" height="57.417" rx="11" ry="11" style="stroke:#181818;stroke-width:3.3000000000000003;" width="160.6" x="187" y="288.851"/><text fill="#000000" font-family="sans-serif" font-size="30.8" lengthAdjust="spacing" textLength="138.6" x="198" y="328.741">_from_file</text><line style="stroke:#181818;stroke-width:3.3000000000000003;" x1="347.6" x2="391.6" y1="317.5595" y2="317.5595"/><rect fill="none" height="57.417" style="stroke:#181818;stroke-width:1.1;" width="74.8" x="391.6" y="288.851"/><text fill="#000000" font-family="sans-serif" font-size="30.8" lengthAdjust="spacing" textLength="52.8" x="402.6" y="328.741">+++</text><line style="stroke:#181818;stroke-width:3.3000000000000003;" x1="466.4" x2="510.4" y1="317.5595" y2="317.5595"/><rect fill="#F1F1F1" height="57.417" rx="11" ry="11" style="stroke:#181818;stroke-width:3.3000000000000003;" width="123.2" x="510.4" y="288.851"/><text fill="#000000" font-family="sans-serif" font-size="30.8" lengthAdjust="spacing" textLength="101.2" x="521.4" y="328.741">_to_file</text><ellipse cx="30.8" cy="317.5595" fill="none" rx="8.8" ry="8.8" style="stroke:#181818;stroke-width:4.4;"/><ellipse cx="699.6" cy="317.5595" fill="#181818" rx="8.8" ry="8.8" style="stroke:#181818;stroke-width:2.2;"/><line style="stroke:#181818;stroke-width:3.3000000000000003;" x1="39.6" x2="88" y1="317.5595" y2="317.5595"/><line style="stroke:#181818;stroke-width:3.3000000000000003;" x1="633.6" x2="690.8" y1="317.5595" y2="317.5595"/><path d="M657.8,317.5595 L657.8,310.9595 L671,317.5595 L657.8,324.1595 L657.8,317.5595 " fill="#181818" style="stroke:#181818;stroke-width:3.3000000000000003;"/><text fill="#000000" font-family="sans-serif" font-size="30.8" font-weight="bold" lengthAdjust="spacing" textLength="77" x="22" y="408.158">hunk</text><line style="stroke:#181818;stroke-width:3.3000000000000003;" x1="88" x2="88" y1="465.3935" y2="465.3935"/><rect fill="none" height="57.417" style="stroke:#181818;stroke-width:1.1;" width="83.6" x="88" y="436.685"/><text fill="#000000" font-family="sans-serif" font-size="30.8" lengthAdjust="spacing" textLength="61.6" x="99" y="476.575">@@</text><line style="stroke:#181818;stroke-width:3.3000000000000003;" x1="171.6" x2="215.6" y1="465.3935" y2="465.3935"/><rect fill="#F1F1F1" height="57.417" rx="11" ry="11" style="stroke:#181818;stroke-width:3.3000000000000003;" width="156.2" x="215.6" y="436.685"/><text fill="#000000" font-family="sans-serif" font-size="30.8" lengthAdjust="spacing" textLength="134.2" x="226.6" y="476.575">_hheader</text><line style="stroke:#181818;stroke-width:3.3000000000000003;" x1="371.8" x2="415.8" y1="465.3935" y2="465.3935"/><rect fill="none" height="57.417" style="stroke:#181818;stroke-width:1.1;" width="83.6" x="415.8" y="436.685"/><text fill="#000000" font-family="sans-serif" font-size="30.8" lengthAdjust="spacing" textLength="61.6" x="426.8" y="476.575">@@</text><line style="stroke:#181818;stroke-width:3.3000000000000003;" x1="499.4" x2="543.4" y1="465.3935" y2="465.3935"/><rect fill="#F1F1F1" height="57.417" rx="11" ry="11" style="stroke:#181818;stroke-width:3.3000000000000003;" width="237.6" x="543.4" y="436.685"/><text fill="#000000" font-family="sans-serif" font-size="30.8" lengthAdjust="spacing" textLength="215.6" x="554.4" y="476.575">model_element</text><ellipse cx="30.8" cy="465.3935" fill="none" rx="8.8" ry="8.8" style="stroke:#181818;stroke-width:4.4;"/><ellipse cx="847" cy="465.3935" fill="#181818" rx="8.8" ry="8.8" style="stroke:#181818;stroke-width:2.2;"/><line style="stroke:#181818;stroke-width:3.3000000000000003;" x1="39.6" x2="88" y1="465.3935" y2="465.3935"/><line style="stroke:#181818;stroke-width:3.3000000000000003;" x1="781" x2="838.2" y1="465.3935" y2="465.3935"/><path d="M805.2,465.3935 L805.2,458.7935 L818.4,465.3935 L805.2,471.9935 L805.2,465.3935 " fill="#181818" style="stroke:#181818;stroke-width:3.3000000000000003;"/><text fill="#000000" font-family="sans-serif" font-size="30.8" font-weight="bold" lengthAdjust="spacing" textLength="228.8" x="22" y="555.992">model_element</text><line style="stroke:#181818;stroke-width:3.3000000000000003;" x1="88" x2="88" y1="639.6274" y2="639.6274"/><rect fill="#F1F1F1" height="57.417" rx="11" ry="11" style="stroke:#181818;stroke-width:3.3000000000000003;" width="99" x="88" y="610.9189"/><text fill="#000000" font-family="sans-serif" font-size="30.8" lengthAdjust="spacing" textLength="77" x="99" y="650.809">_type</text><line style="stroke:#181818;stroke-width:3.3000000000000003;" x1="187" x2="231" y1="639.6274" y2="639.6274"/><rect fill="#F1F1F1" height="57.417" rx="11" ry="11" style="stroke:#181818;stroke-width:3.3000000000000003;" width="105.6" x="231" y="610.9189"/><text fill="#000000" font-family="sans-serif" font-size="30.8" lengthAdjust="spacing" textLength="83.6" x="242" y="650.809">_label</text><line style="stroke:#181818;stroke-width:3.3000000000000003;" x1="336.6" x2="380.6" y1="639.6274" y2="639.6274"/><rect fill="none" height="57.417" style="stroke:#181818;stroke-width:1.1;" width="33" x="380.6" y="610.9189"/><text fill="#000000" font-family="sans-serif" font-size="30.8" lengthAdjust="spacing" textLength="11" x="391.6" y="650.809">{</text><line style="stroke:#181818;stroke-width:3.3000000000000003;" x1="413.6" x2="457.6" y1="639.6274" y2="639.6274"/><path d="M475.2,622.0274 C475.2,635.2274 479.6,639.6274 492.8,639.6274 " fill="none" style="stroke:#181818;stroke-width:3.3000000000000003;"/><line style="stroke:#181818;stroke-width:3.3000000000000003;" x1="475.2" x2="475.2" y1="613.1189" y2="622.0274"/><path d="M475.2,613.1189 C475.2,599.9189 479.6,595.5189 492.8,595.5189 " fill="none" style="stroke:#181818;stroke-width:3.3000000000000003;"/><line style="stroke:#181818;stroke-width:3.3000000000000003;" x1="490.6" x2="611.6" y1="595.5189" y2="595.5189"/><path d="M558.8,595.5189 L558.8,588.9189 L545.6,595.5189 L558.8,602.1189 L558.8,595.5189 " fill="#181818" style="stroke:#181818;stroke-width:3.3000000000000003;"/><path d="M627,622.0274 C627,635.2274 622.6,639.6274 609.4,639.6274 " fill="none" style="stroke:#181818;stroke-width:3.3000000000000003;"/><line style="stroke:#181818;stroke-width:3.3000000000000003;" x1="627" x2="627" y1="613.1189" y2="622.0274"/><path d="M609.4,595.5189 C622.6,595.5189 627,599.9189 627,613.1189 " fill="none" style="stroke:#181818;stroke-width:3.3000000000000003;"/><line style="stroke:#181818;stroke-width:3.3000000000000003;" x1="457.6" x2="490.6" y1="639.6274" y2="639.6274"/><line style="stroke:#181818;stroke-width:3.3000000000000003;" x1="611.6" x2="644.6" y1="639.6274" y2="639.6274"/><rect fill="#F1F1F1" height="57.417" rx="11" ry="11" style="stroke:#181818;stroke-width:3.3000000000000003;" width="121" x="490.6" y="610.9189"/><text fill="#000000" font-family="sans-serif" font-size="30.8" lengthAdjust="spacing" textLength="99" x="501.6" y="650.809">feature</text><line style="stroke:#181818;stroke-width:3.3000000000000003;" x1="644.6" x2="688.6" y1="639.6274" y2="639.6274"/><rect fill="none" height="57.417" style="stroke:#181818;stroke-width:1.1;" width="33" x="688.6" y="610.9189"/><text fill="#000000" font-family="sans-serif" font-size="30.8" lengthAdjust="spacing" textLength="11" x="699.6" y="650.809">}</text><ellipse cx="30.8" cy="639.6274" fill="none" rx="8.8" ry="8.8" style="stroke:#181818;stroke-width:4.4;"/><ellipse cx="787.6" cy="639.6274" fill="#181818" rx="8.8" ry="8.8" style="stroke:#181818;stroke-width:2.2;"/><line style="stroke:#181818;stroke-width:3.3000000000000003;" x1="39.6" x2="88" y1="639.6274" y2="639.6274"/><line style="stroke:#181818;stroke-width:3.3000000000000003;" x1="721.6" x2="778.8" y1="639.6274" y2="639.6274"/><path d="M745.8,639.6274 L745.8,633.0274 L759,639.6274 L745.8,646.2274 L745.8,639.6274 " fill="#181818" style="stroke:#181818;stroke-width:3.3000000000000003;"/><text fill="#000000" font-family="sans-serif" font-size="30.8" font-weight="bold" lengthAdjust="spacing" textLength="105.6" x="22" y="730.226">feature</text><rect fill="#F1F1F1" height="57.417" rx="11" ry="11" style="stroke:#181818;stroke-width:3.3000000000000003;" width="136.4" x="140.8" y="758.7529"/><text fill="#000000" font-family="sans-serif" font-size="30.8" lengthAdjust="spacing" textLength="114.4" x="151.8" y="798.643">attribute</text><line style="stroke:#181818;stroke-width:3.3000000000000003;" x1="88" x2="140.8" y1="787.4614" y2="787.4614"/><line style="stroke:#181818;stroke-width:3.3000000000000003;" x1="277.2" x2="349.8" y1="787.4614" y2="787.4614"/><rect fill="#F1F1F1" height="57.417" rx="11" ry="11" style="stroke:#181818;stroke-width:3.3000000000000003;" width="156.2" x="140.8" y="838.1699"/><text fill="#000000" font-family="sans-serif" font-size="30.8" lengthAdjust="spacing" textLength="134.2" x="151.8" y="878.06">reference</text><line style="stroke:#181818;stroke-width:3.3000000000000003;" x1="297" x2="297" y1="866.8784" y2="866.8784"/><path d="M114.4,840.4784 C114.4,860.2784 121,866.8784 140.8,866.8784 " fill="none" style="stroke:#181818;stroke-width:3.3000000000000003;"/><line style="stroke:#181818;stroke-width:3.3000000000000003;" x1="114.4" x2="114.4" y1="813.8614" y2="840.4784"/><path d="M88,787.4614 C107.8,787.4614 114.4,794.0614 114.4,813.8614 " fill="none" style="stroke:#181818;stroke-width:3.3000000000000003;"/><path d="M323.4,840.4784 C323.4,860.2784 316.8,866.8784 297,866.8784 " fill="none" style="stroke:#181818;stroke-width:3.3000000000000003;"/><line style="stroke:#181818;stroke-width:3.3000000000000003;" x1="323.4" x2="323.4" y1="813.8614" y2="840.4784"/><path d="M323.4,813.8614 C323.4,794.0614 330,787.4614 349.8,787.4614 " fill="none" style="stroke:#181818;stroke-width:3.3000000000000003;"/><ellipse cx="30.8" cy="787.4614" fill="none" rx="8.8" ry="8.8" style="stroke:#181818;stroke-width:4.4;"/><ellipse cx="415.8" cy="787.4614" fill="#181818" rx="8.8" ry="8.8" style="stroke:#181818;stroke-width:2.2;"/><line style="stroke:#181818;stroke-width:3.3000000000000003;" x1="39.6" x2="88" y1="787.4614" y2="787.4614"/><line style="stroke:#181818;stroke-width:3.3000000000000003;" x1="349.8" x2="407" y1="787.4614" y2="787.4614"/><path d="M374,787.4614 L374,780.8614 L387.2,787.4614 L374,794.0614 L374,787.4614 " fill="#181818" style="stroke:#181818;stroke-width:3.3000000000000003;"/><text fill="#000000" font-family="sans-serif" font-size="30.8" font-weight="bold" lengthAdjust="spacing" textLength="127.6" x="22" y="957.477">attribute</text><line style="stroke:#181818;stroke-width:3.3000000000000003;" x1="88" x2="88" y1="1014.7124" y2="1014.7124"/><rect fill="#F1F1F1" height="57.417" rx="11" ry="11" style="stroke:#181818;stroke-width:3.3000000000000003;" width="118.8" x="88" y="986.0039"/><text fill="#000000" font-family="sans-serif" font-size="30.8" lengthAdjust="spacing" textLength="96.8" x="99" y="1025.8939">_name</text><line style="stroke:#181818;stroke-width:3.3000000000000003;" x1="206.8" x2="250.8" y1="1014.7124" y2="1014.7124"/><rect fill="none" height="57.417" style="stroke:#181818;stroke-width:1.1;" width="30.8" x="250.8" y="986.0039"/><text fill="#000000" font-family="sans-serif" font-size="30.8" lengthAdjust="spacing" textLength="8.8" x="261.8" y="1025.8939">:</text><line style="stroke:#181818;stroke-width:3.3000000000000003;" x1="281.6" x2="325.6" y1="1014.7124" y2="1014.7124"/><rect fill="#F1F1F1" height="57.417" rx="11" ry="11" style="stroke:#181818;stroke-width:3.3000000000000003;" width="228.8" x="325.6" y="986.0039"/><text fill="#000000" font-family="sans-serif" font-size="30.8" lengthAdjust="spacing" textLength="206.8" x="336.6" y="1025.8939">attribute_value</text><ellipse cx="30.8" cy="1014.7124" fill="none" rx="8.8" ry="8.8" style="stroke:#181818;stroke-width:4.4;"/><ellipse cx="620.4" cy="1014.7124" fill="#181818" rx="8.8" ry="8.8" style="stroke:#181818;stroke-width:2.2;"/><line style="stroke:#181818;stroke-width:3.3000000000000003;" x1="39.6" x2="88" y1="1014.7124" y2="1014.7124"/><line style="stroke:#181818;stroke-width:3.3000000000000003;" x1="554.4" x2="611.6" y1="1014.7124" y2="1014.7124"/><path d="M578.6,1014.7124 L578.6,1008.1124 L591.8,1014.7124 L578.6,1021.3124 L578.6,1014.7124 " fill="#181818" style="stroke:#181818;stroke-width:3.3000000000000003;"/><text fill="#000000" font-family="sans-serif" font-size="30.8" font-weight="bold" lengthAdjust="spacing" textLength="226.6" x="22" y="1105.3109">attribute_value</text><rect fill="#F1F1F1" height="57.417" rx="11" ry="11" style="stroke:#181818;stroke-width:3.3000000000000003;" width="277.2" x="140.8" y="1133.8379"/><text fill="#000000" font-family="sans-serif" font-size="30.8" lengthAdjust="spacing" textLength="255.2" x="151.8" y="1173.7279">_single_attr_value</text><line style="stroke:#181818;stroke-width:3.3000000000000003;" x1="88" x2="140.8" y1="1162.5464" y2="1162.5464"/><line style="stroke:#181818;stroke-width:3.3000000000000003;" x1="418" x2="752.4" y1="1162.5464" y2="1162.5464"/><line style="stroke:#181818;stroke-width:3.3000000000000003;" x1="140.8" x2="140.8" y1="1303.5634" y2="1303.5634"/><rect fill="none" height="57.417" style="stroke:#181818;stroke-width:1.1;" width="30.8" x="140.8" y="1274.8549"/><text fill="#000000" font-family="sans-serif" font-size="30.8" lengthAdjust="spacing" textLength="8.8" x="151.8" y="1314.7449">[</text><line style="stroke:#181818;stroke-width:3.3000000000000003;" x1="171.6" x2="215.6" y1="1303.5634" y2="1303.5634"/><path d="M233.2,1285.9634 C233.2,1299.1634 228.8,1303.5634 215.6,1303.5634 " fill="none" style="stroke:#181818;stroke-width:3.3000000000000003;"/><line style="stroke:#181818;stroke-width:3.3000000000000003;" x1="233.2" x2="233.2" y1="1241.8549" y2="1285.9634"/><path d="M233.2,1241.8549 C233.2,1228.6549 237.6,1224.2549 250.8,1224.2549 " fill="none" style="stroke:#181818;stroke-width:3.3000000000000003;"/><line style="stroke:#181818;stroke-width:3.3000000000000003;" x1="250.8" x2="589.6" y1="1224.2549" y2="1224.2549"/><path d="M381.92,1224.2549 L381.92,1217.6549 L395.12,1224.2549 L381.92,1230.8549 L381.92,1224.2549 " fill="#181818" style="stroke:#181818;stroke-width:3.3000000000000003;"/><path d="M607.2,1285.9634 C607.2,1299.1634 611.6,1303.5634 624.8,1303.5634 " fill="none" style="stroke:#181818;stroke-width:3.3000000000000003;"/><line style="stroke:#181818;stroke-width:3.3000000000000003;" x1="607.2" x2="607.2" y1="1241.8549" y2="1285.9634"/><path d="M589.6,1224.2549 C602.8,1224.2549 607.2,1228.6549 607.2,1241.8549 " fill="none" style="stroke:#181818;stroke-width:3.3000000000000003;"/><line style="stroke:#181818;stroke-width:3.3000000000000003;" x1="215.6" x2="248.6" y1="1303.5634" y2="1303.5634"/><line style="stroke:#181818;stroke-width:3.3000000000000003;" x1="591.8" x2="624.8" y1="1303.5634" y2="1303.5634"/><path d="M266.2,1285.9634 C266.2,1299.1634 270.6,1303.5634 283.8,1303.5634 " fill="none" style="stroke:#181818;stroke-width:3.3000000000000003;"/><line style="stroke:#181818;stroke-width:3.3000000000000003;" x1="266.2" x2="266.2" y1="1277.0549" y2="1285.9634"/><path d="M266.2,1277.0549 C266.2,1263.8549 270.6,1259.4549 283.8,1259.4549 " fill="none" style="stroke:#181818;stroke-width:3.3000000000000003;"/><line style="stroke:#181818;stroke-width:3.3000000000000003;" x1="281.6" x2="558.8" y1="1259.4549" y2="1259.4549"/><path d="M443.52,1259.4549 L443.52,1252.8549 L430.32,1259.4549 L443.52,1266.0549 L443.52,1259.4549 " fill="#181818" style="stroke:#181818;stroke-width:3.3000000000000003;"/><path d="M574.2,1285.9634 C574.2,1299.1634 569.8,1303.5634 556.6,1303.5634 " fill="none" style="stroke:#181818;stroke-width:3.3000000000000003;"/><line style="stroke:#181818;stroke-width:3.3000000000000003;" x1="574.2" x2="574.2" y1="1277.0549" y2="1285.9634"/><path d="M556.6,1259.4549 C569.8,1259.4549 574.2,1263.8549 574.2,1277.0549 " fill="none" style="stroke:#181818;stroke-width:3.3000000000000003;"/><line style="stroke:#181818;stroke-width:3.3000000000000003;" x1="248.6" x2="281.6" y1="1303.5634" y2="1303.5634"/><line style="stroke:#181818;stroke-width:3.3000000000000003;" x1="558.8" x2="591.8" y1="1303.5634" y2="1303.5634"/><rect fill="#F1F1F1" height="57.417" rx="11" ry="11" style="stroke:#181818;stroke-width:3.3000000000000003;" width="277.2" x="281.6" y="1274.8549"/><text fill="#000000" font-family="sans-serif" font-size="30.8" lengthAdjust="spacing" textLength="255.2" x="292.6" y="1314.7449">_single_attr_value</text><line style="stroke:#181818;stroke-width:3.3000000000000003;" x1="624.8" x2="668.8" y1="1303.5634" y2="1303.5634"/><rect fill="none" height="57.417" style="stroke:#181818;stroke-width:1.1;" width="30.8" x="668.8" y="1274.8549"/><text fill="#000000" font-family="sans-serif" font-size="30.8" lengthAdjust="spacing" textLength="8.8" x="679.8" y="1314.7449">]</text><line style="stroke:#181818;stroke-width:3.3000000000000003;" x1="699.6" x2="699.6" y1="1303.5634" y2="1303.5634"/><path d="M114.4,1277.1634 C114.4,1296.9634 121,1303.5634 140.8,1303.5634 " fill="none" style="stroke:#181818;stroke-width:3.3000000000000003;"/><line style="stroke:#181818;stroke-width:3.3000000000000003;" x1="114.4" x2="114.4" y1="1188.9464" y2="1277.1634"/><path d="M88,1162.5464 C107.8,1162.5464 114.4,1169.1464 114.4,1188.9464 " fill="none" style="stroke:#181818;stroke-width:3.3000000000000003;"/><path d="M726,1277.1634 C726,1296.9634 719.4,1303.5634 699.6,1303.5634 " fill="none" style="stroke:#181818;stroke-width:3.3000000000000003;"/><line style="stroke:#181818;stroke-width:3.3000000000000003;" x1="726" x2="726" y1="1188.9464" y2="1277.1634"/><path d="M726,1188.9464 C726,1169.1464 732.6,1162.5464 752.4,1162.5464 " fill="none" style="stroke:#181818;stroke-width:3.3000000000000003;"/><ellipse cx="30.8" cy="1162.5464" fill="none" rx="8.8" ry="8.8" style="stroke:#181818;stroke-width:4.4;"/><ellipse cx="818.4" cy="1162.5464" fill="#181818" rx="8.8" ry="8.8" style="stroke:#181818;stroke-width:2.2;"/><line style="stroke:#181818;stroke-width:3.3000000000000003;" x1="39.6" x2="88" y1="1162.5464" y2="1162.5464"/><line style="stroke:#181818;stroke-width:3.3000000000000003;" x1="752.4" x2="809.6" y1="1162.5464" y2="1162.5464"/><path d="M776.6,1162.5464 L776.6,1155.9464 L789.8,1162.5464 L776.6,1169.1464 L776.6,1162.5464 " fill="#181818" style="stroke:#181818;stroke-width:3.3000000000000003;"/><text fill="#000000" font-family="sans-serif" font-size="30.8" font-weight="bold" lengthAdjust="spacing" textLength="140.8" x="22" y="1394.1619">reference</text><rect fill="#F1F1F1" height="57.417" rx="11" ry="11" style="stroke:#181818;stroke-width:3.3000000000000003;" width="345.4" x="140.8" y="1422.6889"/><text fill="#000000" font-family="sans-serif" font-size="30.8" lengthAdjust="spacing" textLength="323.4" x="151.8" y="1462.5789">containment_reference</text><line style="stroke:#181818;stroke-width:3.3000000000000003;" x1="88" x2="140.8" y1="1451.3974" y2="1451.3974"/><line style="stroke:#181818;stroke-width:3.3000000000000003;" x1="486.2" x2="609.4" y1="1451.3974" y2="1451.3974"/><rect fill="#F1F1F1" height="57.417" rx="11" ry="11" style="stroke:#181818;stroke-width:3.3000000000000003;" width="415.8" x="140.8" y="1502.1059"/><text fill="#000000" font-family="sans-serif" font-size="30.8" lengthAdjust="spacing" textLength="393.8" x="151.8" y="1541.9959">non_containment_reference</text><line style="stroke:#181818;stroke-width:3.3000000000000003;" x1="556.6" x2="556.6" y1="1530.8144" y2="1530.8144"/><path d="M114.4,1504.4144 C114.4,1524.2144 121,1530.8144 140.8,1530.8144 " fill="none" style="stroke:#181818;stroke-width:3.3000000000000003;"/><line style="stroke:#181818;stroke-width:3.3000000000000003;" x1="114.4" x2="114.4" y1="1477.7974" y2="1504.4144"/><path d="M88,1451.3974 C107.8,1451.3974 114.4,1457.9974 114.4,1477.7974 " fill="none" style="stroke:#181818;stroke-width:3.3000000000000003;"/><path d="M583,1504.4144 C583,1524.2144 576.4,1530.8144 556.6,1530.8144 " fill="none" style="stroke:#181818;stroke-width:3.3000000000000003;"/><line style="stroke:#181818;stroke-width:3.3000000000000003;" x1="583" x2="583" y1="1477.7974" y2="1504.4144"/><path d="M583,1477.7974 C583,1457.9974 589.6,1451.3974 609.4,1451.3974 " fill="none" style="stroke:#181818;stroke-width:3.3000000000000003;"/><ellipse cx="30.8" cy="1451.3974" fill="none" rx="8.8" ry="8.8" style="stroke:#181818;stroke-width:4.4;"/><ellipse cx="675.4" cy="1451.3974" fill="#181818" rx="8.8" ry="8.8" style="stroke:#181818;stroke-width:2.2;"/><line style="stroke:#181818;stroke-width:3.3000000000000003;" x1="39.6" x2="88" y1="1451.3974" y2="1451.3974"/><line style="stroke:#181818;stroke-width:3.3000000000000003;" x1="609.4" x2="666.6" y1="1451.3974" y2="1451.3974"/><path d="M633.6,1451.3974 L633.6,1444.7974 L646.8,1451.3974 L633.6,1457.9974 L633.6,1451.3974 " fill="#181818" style="stroke:#181818;stroke-width:3.3000000000000003;"/><text fill="#000000" font-family="sans-serif" font-size="30.8" font-weight="bold" lengthAdjust="spacing" textLength="347.6" x="22" y="1621.4129">containment_reference</text><line style="stroke:#181818;stroke-width:3.3000000000000003;" x1="88" x2="88" y1="1678.6483" y2="1678.6483"/><rect fill="#F1F1F1" height="57.417" rx="11" ry="11" style="stroke:#181818;stroke-width:3.3000000000000003;" width="118.8" x="88" y="1649.9398"/><text fill="#000000" font-family="sans-serif" font-size="30.8" lengthAdjust="spacing" textLength="96.8" x="99" y="1689.8299">_name</text><line style="stroke:#181818;stroke-width:3.3000000000000003;" x1="206.8" x2="250.8" y1="1678.6483" y2="1678.6483"/><rect fill="none" height="57.417" style="stroke:#181818;stroke-width:1.1;" width="72.6" x="250.8" y="1649.9398"/><text fill="#000000" font-family="sans-serif" font-size="30.8" lengthAdjust="spacing" textLength="50.6" x="261.8" y="1689.8299">*--&gt;</text><line style="stroke:#181818;stroke-width:3.3000000000000003;" x1="323.4" x2="367.4" y1="1678.6483" y2="1678.6483"/><rect fill="#F1F1F1" height="57.417" rx="11" ry="11" style="stroke:#181818;stroke-width:3.3000000000000003;" width="248.6" x="367.4" y="1649.9398"/><text fill="#000000" font-family="sans-serif" font-size="30.8" lengthAdjust="spacing" textLength="226.6" x="378.4" y="1689.8299">reference_value</text><ellipse cx="30.8" cy="1678.6483" fill="none" rx="8.8" ry="8.8" style="stroke:#181818;stroke-width:4.4;"/><ellipse cx="682" cy="1678.6483" fill="#181818" rx="8.8" ry="8.8" style="stroke:#181818;stroke-width:2.2;"/><line style="stroke:#181818;stroke-width:3.3000000000000003;" x1="39.6" x2="88" y1="1678.6483" y2="1678.6483"/><line style="stroke:#181818;stroke-width:3.3000000000000003;" x1="616" x2="673.2" y1="1678.6483" y2="1678.6483"/><path d="M640.2,1678.6483 L640.2,1672.0483 L653.4,1678.6483 L640.2,1685.2483 L640.2,1678.6483 " fill="#181818" style="stroke:#181818;stroke-width:3.3000000000000003;"/><text fill="#000000" font-family="sans-serif" font-size="30.8" font-weight="bold" lengthAdjust="spacing" textLength="424.6" x="22" y="1769.2469">non_containment_reference</text><line style="stroke:#181818;stroke-width:3.3000000000000003;" x1="88" x2="88" y1="1826.4823" y2="1826.4823"/><rect fill="#F1F1F1" height="57.417" rx="11" ry="11" style="stroke:#181818;stroke-width:3.3000000000000003;" width="118.8" x="88" y="1797.7738"/><text fill="#000000" font-family="sans-serif" font-size="30.8" lengthAdjust="spacing" textLength="96.8" x="99" y="1837.6639">_name</text><line style="stroke:#181818;stroke-width:3.3000000000000003;" x1="206.8" x2="250.8" y1="1826.4823" y2="1826.4823"/><rect fill="none" height="57.417" style="stroke:#181818;stroke-width:1.1;" width="61.6" x="250.8" y="1797.7738"/><text fill="#000000" font-family="sans-serif" font-size="30.8" lengthAdjust="spacing" textLength="39.6" x="261.8" y="1837.6639">--&gt;</text><line style="stroke:#181818;stroke-width:3.3000000000000003;" x1="312.4" x2="356.4" y1="1826.4823" y2="1826.4823"/><rect fill="#F1F1F1" height="57.417" rx="11" ry="11" style="stroke:#181818;stroke-width:3.3000000000000003;" width="248.6" x="356.4" y="1797.7738"/><text fill="#000000" font-family="sans-serif" font-size="30.8" lengthAdjust="spacing" textLength="226.6" x="367.4" y="1837.6639">reference_value</text><ellipse cx="30.8" cy="1826.4823" fill="none" rx="8.8" ry="8.8" style="stroke:#181818;stroke-width:4.4;"/><ellipse cx="671" cy="1826.4823" fill="#181818" rx="8.8" ry="8.8" style="stroke:#181818;stroke-width:2.2;"/><line style="stroke:#181818;stroke-width:3.3000000000000003;" x1="39.6" x2="88" y1="1826.4823" y2="1826.4823"/><line style="stroke:#181818;stroke-width:3.3000000000000003;" x1="605" x2="662.2" y1="1826.4823" y2="1826.4823"/><path d="M629.2,1826.4823 L629.2,1819.8823 L642.4,1826.4823 L629.2,1833.0823 L629.2,1826.4823 " fill="#181818" style="stroke:#181818;stroke-width:3.3000000000000003;"/><text fill="#000000" font-family="sans-serif" font-size="30.8" font-weight="bold" lengthAdjust="spacing" textLength="239.8" x="22" y="1917.0809">reference_value</text><rect fill="#F1F1F1" height="57.417" rx="11" ry="11" style="stroke:#181818;stroke-width:3.3000000000000003;" width="250.8" x="140.8" y="1945.6078"/><text fill="#000000" font-family="sans-serif" font-size="30.8" lengthAdjust="spacing" textLength="228.8" x="151.8" y="1985.4979">single_ref_value</text><line style="stroke:#181818;stroke-width:3.3000000000000003;" x1="88" x2="140.8" y1="1974.3163" y2="1974.3163"/><line style="stroke:#181818;stroke-width:3.3000000000000003;" x1="391.6" x2="726" y1="1974.3163" y2="1974.3163"/><line style="stroke:#181818;stroke-width:3.3000000000000003;" x1="140.8" x2="140.8" y1="2115.3333" y2="2115.3333"/><rect fill="none" height="57.417" style="stroke:#181818;stroke-width:1.1;" width="30.8" x="140.8" y="2086.6248"/><text fill="#000000" font-family="sans-serif" font-size="30.8" lengthAdjust="spacing" textLength="8.8" x="151.8" y="2126.5148">[</text><line style="stroke:#181818;stroke-width:3.3000000000000003;" x1="171.6" x2="215.6" y1="2115.3333" y2="2115.3333"/><path d="M233.2,2097.7333 C233.2,2110.9333 228.8,2115.3333 215.6,2115.3333 " fill="none" style="stroke:#181818;stroke-width:3.3000000000000003;"/><line style="stroke:#181818;stroke-width:3.3000000000000003;" x1="233.2" x2="233.2" y1="2053.6248" y2="2097.7333"/><path d="M233.2,2053.6248 C233.2,2040.4248 237.6,2036.0248 250.8,2036.0248 " fill="none" style="stroke:#181818;stroke-width:3.3000000000000003;"/><line style="stroke:#181818;stroke-width:3.3000000000000003;" x1="250.8" x2="563.2" y1="2036.0248" y2="2036.0248"/><path d="M371.36,2036.0248 L371.36,2029.4248 L384.56,2036.0248 L371.36,2042.6248 L371.36,2036.0248 " fill="#181818" style="stroke:#181818;stroke-width:3.3000000000000003;"/><path d="M580.8,2097.7333 C580.8,2110.9333 585.2,2115.3333 598.4,2115.3333 " fill="none" style="stroke:#181818;stroke-width:3.3000000000000003;"/><line style="stroke:#181818;stroke-width:3.3000000000000003;" x1="580.8" x2="580.8" y1="2053.6248" y2="2097.7333"/><path d="M563.2,2036.0248 C576.4,2036.0248 580.8,2040.4248 580.8,2053.6248 " fill="none" style="stroke:#181818;stroke-width:3.3000000000000003;"/><line style="stroke:#181818;stroke-width:3.3000000000000003;" x1="215.6" x2="248.6" y1="2115.3333" y2="2115.3333"/><line style="stroke:#181818;stroke-width:3.3000000000000003;" x1="565.4" x2="598.4" y1="2115.3333" y2="2115.3333"/><path d="M266.2,2097.7333 C266.2,2110.9333 270.6,2115.3333 283.8,2115.3333 " fill="none" style="stroke:#181818;stroke-width:3.3000000000000003;"/><line style="stroke:#181818;stroke-width:3.3000000000000003;" x1="266.2" x2="266.2" y1="2088.8248" y2="2097.7333"/><path d="M266.2,2088.8248 C266.2,2075.6248 270.6,2071.2248 283.8,2071.2248 " fill="none" style="stroke:#181818;stroke-width:3.3000000000000003;"/><line style="stroke:#181818;stroke-width:3.3000000000000003;" x1="281.6" x2="532.4" y1="2071.2248" y2="2071.2248"/><path d="M427.68,2071.2248 L427.68,2064.6248 L414.48,2071.2248 L427.68,2077.8248 L427.68,2071.2248 " fill="#181818" style="stroke:#181818;stroke-width:3.3000000000000003;"/><path d="M547.8,2097.7333 C547.8,2110.9333 543.4,2115.3333 530.2,2115.3333 " fill="none" style="stroke:#181818;stroke-width:3.3000000000000003;"/><line style="stroke:#181818;stroke-width:3.3000000000000003;" x1="547.8" x2="547.8" y1="2088.8248" y2="2097.7333"/><path d="M530.2,2071.2248 C543.4,2071.2248 547.8,2075.6248 547.8,2088.8248 " fill="none" style="stroke:#181818;stroke-width:3.3000000000000003;"/><line style="stroke:#181818;stroke-width:3.3000000000000003;" x1="248.6" x2="281.6" y1="2115.3333" y2="2115.3333"/><line style="stroke:#181818;stroke-width:3.3000000000000003;" x1="532.4" x2="565.4" y1="2115.3333" y2="2115.3333"/><rect fill="#F1F1F1" height="57.417" rx="11" ry="11" style="stroke:#181818;stroke-width:3.3000000000000003;" width="250.8" x="281.6" y="2086.6248"/><text fill="#000000" font-family="sans-serif" font-size="30.8" lengthAdjust="spacing" textLength="228.8" x="292.6" y="2126.5148">single_ref_value</text><line style="stroke:#181818;stroke-width:3.3000000000000003;" x1="598.4" x2="642.4" y1="2115.3333" y2="2115.3333"/><rect fill="none" height="57.417" style="stroke:#181818;stroke-width:1.1;" width="30.8" x="642.4" y="2086.6248"/><text fill="#000000" font-family="sans-serif" font-size="30.8" lengthAdjust="spacing" textLength="8.8" x="653.4" y="2126.5148">]</text><line style="stroke:#181818;stroke-width:3.3000000000000003;" x1="673.2" x2="673.2" y1="2115.3333" y2="2115.3333"/><path d="M114.4,2088.9333 C114.4,2108.7333 121,2115.3333 140.8,2115.3333 " fill="none" style="stroke:#181818;stroke-width:3.3000000000000003;"/><line style="stroke:#181818;stroke-width:3.3000000000000003;" x1="114.4" x2="114.4" y1="2000.7163" y2="2088.9333"/><path d="M88,1974.3163 C107.8,1974.3163 114.4,1980.9163 114.4,2000.7163 " fill="none" style="stroke:#181818;stroke-width:3.3000000000000003;"/><path d="M699.6,2088.9333 C699.6,2108.7333 693,2115.3333 673.2,2115.3333 " fill="none" style="stroke:#181818;stroke-width:3.3000000000000003;"/><line style="stroke:#181818;stroke-width:3.3000000000000003;" x1="699.6" x2="699.6" y1="2000.7163" y2="2088.9333"/><path d="M699.6,2000.7163 C699.6,1980.9163 706.2,1974.3163 726,1974.3163 " fill="none" style="stroke:#181818;stroke-width:3.3000000000000003;"/><ellipse cx="30.8" cy="1974.3163" fill="none" rx="8.8" ry="8.8" style="stroke:#181818;stroke-width:4.4;"/><ellipse cx="792" cy="1974.3163" fill="#181818" rx="8.8" ry="8.8" style="stroke:#181818;stroke-width:2.2;"/><line style="stroke:#181818;stroke-width:3.3000000000000003;" x1="39.6" x2="88" y1="1974.3163" y2="1974.3163"/><line style="stroke:#181818;stroke-width:3.3000000000000003;" x1="726" x2="783.2" y1="1974.3163" y2="1974.3163"/><path d="M750.2,1974.3163 L750.2,1967.7163 L763.4,1974.3163 L750.2,1980.9163 L750.2,1974.3163 " fill="#181818" style="stroke:#181818;stroke-width:3.3000000000000003;"/><text fill="#000000" font-family="sans-serif" font-size="30.8" font-weight="bold" lengthAdjust="spacing" textLength="248.6" x="22" y="2205.9318">single_ref_value</text><line style="stroke:#181818;stroke-width:3.3000000000000003;" x1="88" x2="88" y1="2263.1673" y2="2263.1673"/><rect fill="#F1F1F1" height="57.417" rx="11" ry="11" style="stroke:#181818;stroke-width:3.3000000000000003;" width="99" x="88" y="2234.4588"/><text fill="#000000" font-family="sans-serif" font-size="30.8" lengthAdjust="spacing" textLength="77" x="99" y="2274.3488">_type</text><line style="stroke:#181818;stroke-width:3.3000000000000003;" x1="187" x2="231" y1="2263.1673" y2="2263.1673"/><rect fill="#F1F1F1" height="57.417" rx="11" ry="11" style="stroke:#181818;stroke-width:3.3000000000000003;" width="105.6" x="231" y="2234.4588"/><text fill="#000000" font-family="sans-serif" font-size="30.8" lengthAdjust="spacing" textLength="83.6" x="242" y="2274.3488">_label</text><ellipse cx="30.8" cy="2263.1673" fill="none" rx="8.8" ry="8.8" style="stroke:#181818;stroke-width:4.4;"/><ellipse cx="402.6" cy="2263.1673" fill="#181818" rx="8.8" ry="8.8" style="stroke:#181818;stroke-width:2.2;"/><line style="stroke:#181818;stroke-width:3.3000000000000003;" x1="39.6" x2="88" y1="2263.1673" y2="2263.1673"/><line style="stroke:#181818;stroke-width:3.3000000000000003;" x1="336.6" x2="393.8" y1="2263.1673" y2="2263.1673"/><path d="M360.8,2263.1673 L360.8,2256.5673 L374,2263.1673 L360.8,2269.7673 L360.8,2263.1673 " fill="#181818" style="stroke:#181818;stroke-width:3.3000000000000003;"/><!--MD5=[827fe79796632e605b2e77aee1611431]
@startebnf
munidiff = [report_header, {hunk}-];
report_header = "- - -", _from_file, "+++", _to_file;
hunk = "@@", _hheader, "@@", model_element;
model_element = _type, _label, "{", {feature}-, "}";
feature = attribute | reference;
attribute = _name, ":", attribute_value;
attribute_value = _single_attr_value |
    "[",{_single_attr_value}, "]";
reference = containment_reference | non_containment_reference;
containment_reference = _name, "*- ->", reference_value;
non_containment_reference = _name, "- ->", reference_value;
reference_value = single_ref_value |
    "[",{single_ref_value}, "]";
single_ref_value = _type, _label;
@endebnf

PlantUML version 1.2022.13(Sat Nov 19 14:22:17 CET 2022)
(GPL source distribution)
Java Runtime: OpenJDK Runtime Environment
JVM: OpenJDK 64-Bit Server VM
Default Encoding: UTF-8
Language: en
Country: US
--></g></svg>