<?xml version="1.0" encoding="UTF-8"?><svg xmlns="http://www.w3.org/2000/svg" xmlns:xlink="http://www.w3.org/1999/xlink" fill-opacity="1" color-rendering="auto" color-interpolation="auto" text-rendering="auto" stroke="black" stroke-linecap="square" width="505" stroke-miterlimit="10" shape-rendering="auto" stroke-opacity="1" fill="black" stroke-dasharray="none" font-weight="normal" stroke-width="1" height="193" font-family="'Dialog'" font-style="normal" stroke-linejoin="miter" font-size="12px" stroke-dashoffset="0" image-rendering="auto">
  <!--Generated by ySVG 2.5-->
  <defs id="genericDefs"/>
  <g>
    <defs id="defs1">
      <clipPath clipPathUnits="userSpaceOnUse" id="clipPath1">
        <path d="M0 0 L505 0 L505 193 L0 193 L0 0 Z"/>
      </clipPath>
      <clipPath clipPathUnits="userSpaceOnUse" id="clipPath2">
        <path d="M-182 156 L323 156 L323 349 L-182 349 L-182 156 Z"/>
      </clipPath>
      <clipPath clipPathUnits="userSpaceOnUse" id="clipPath3">
        <path d="M34 176 L34 233 L144 233 L144 176 Z"/>
      </clipPath>
      <clipPath clipPathUnits="userSpaceOnUse" id="clipPath4">
        <path d="M206 171 L206 232 L306 232 L306 171 Z"/>
      </clipPath>
      <clipPath clipPathUnits="userSpaceOnUse" id="clipPath5">
        <path d="M-166 260 L-166 332 L-50 332 L-50 260 Z"/>
      </clipPath>
      <clipPath clipPathUnits="userSpaceOnUse" id="clipPath6">
        <path d="M-39 260 L-39 332 L77 332 L77 260 Z"/>
      </clipPath>
      <clipPath clipPathUnits="userSpaceOnUse" id="clipPath7">
        <path d="M83 260 L83 332 L306 332 L306 260 Z"/>
      </clipPath>
      <clipPath clipPathUnits="userSpaceOnUse" id="clipPath8">
        <path d="M-166 176 L-166 237 L-13 237 L-13 176 Z"/>
      </clipPath>
    </defs>
    <g fill="white" text-rendering="geometricPrecision" shape-rendering="geometricPrecision" transform="translate(182,-156)" stroke="white">
      <rect x="-182" width="505" height="193" y="156" clip-path="url(#clipPath2)" stroke="none"/>
    </g>
    <g fill="rgb(254,251,223)" text-rendering="geometricPrecision" shape-rendering="geometricPrecision" transform="matrix(1,0,0,1,182,-156)" stroke="rgb(254,251,223)">
      <rect x="34.6858" width="110.8371" height="57.5357" y="176.9405" clip-path="url(#clipPath2)" stroke="none"/>
    </g>
    <g text-rendering="geometricPrecision" stroke-miterlimit="1.45" shape-rendering="geometricPrecision" transform="matrix(1,0,0,1,182,-156)" stroke-linecap="butt">
      <rect fill="none" x="34.6858" width="110.8371" height="57.5357" y="176.9405" clip-path="url(#clipPath2)"/>
      <text x="67.3448" font-size="13px" y="193.709" clip-path="url(#clipPath3)" font-family="sans-serif" stroke="none" xml:space="preserve">Munidiff</text>
      <line stroke-linecap="square" clip-path="url(#clipPath3)" fill="none" x1="35" x2="144" y1="201" y2="201" stroke-miterlimit="10"/>
      <text x="39.6858" xml:space="preserve" y="217.3272" clip-path="url(#clipPath3)" font-family="sans-serif" stroke="none">fromModel : String</text>
      <text x="39.6858" xml:space="preserve" y="230.7334" clip-path="url(#clipPath3)" font-family="sans-serif" stroke="none">toModel : String</text>
      <line stroke-linecap="square" clip-path="url(#clipPath3)" fill="none" x1="35" x2="144" y1="238" y2="238" stroke-miterlimit="10"/>
    </g>
    <g fill="rgb(254,251,223)" text-rendering="geometricPrecision" shape-rendering="geometricPrecision" transform="matrix(1,0,0,1,182,-156)" stroke="rgb(254,251,223)">
      <rect x="206.7088" width="100.6976" height="61.7514" y="171.8133" clip-path="url(#clipPath2)" stroke="none"/>
    </g>
    <g text-rendering="geometricPrecision" stroke-miterlimit="1.45" shape-rendering="geometricPrecision" transform="matrix(1,0,0,1,182,-156)" stroke-linecap="butt">
      <rect fill="none" x="206.7088" width="100.6976" height="61.7514" y="171.8133" clip-path="url(#clipPath2)"/>
      <text x="209.7295" font-size="13px" y="188.5818" clip-path="url(#clipPath4)" font-family="sans-serif" font-style="italic" stroke="none" xml:space="preserve">ModelDifference</text>
      <line stroke-linecap="square" clip-path="url(#clipPath4)" fill="none" x1="207" x2="306" y1="196" y2="196" stroke-miterlimit="10"/>
      <text x="211.7088" xml:space="preserve" y="212.2" clip-path="url(#clipPath4)" font-family="sans-serif" stroke="none"> </text>
      <text x="211.7088" xml:space="preserve" y="225.6062" clip-path="url(#clipPath4)" font-family="sans-serif" stroke="none"> </text>
      <line stroke-linecap="square" clip-path="url(#clipPath4)" fill="none" x1="207" x2="306" y1="233" y2="233" stroke-miterlimit="10"/>
      <text x="211.7088" xml:space="preserve" y="249.0125" clip-path="url(#clipPath4)" font-family="sans-serif" stroke="none">getFormat() : String</text>
      <text x="211.7088" xml:space="preserve" y="262.4188" clip-path="url(#clipPath4)" font-family="sans-serif" stroke="none">getFileExtension() : String</text>
      <text x="211.7088" xml:space="preserve" y="275.825" clip-path="url(#clipPath4)" font-family="sans-serif" stroke="none"> </text>
    </g>
    <g fill="rgb(254,251,223)" text-rendering="geometricPrecision" shape-rendering="geometricPrecision" transform="matrix(1,0,0,1,182,-156)" stroke="rgb(254,251,223)">
      <rect x="-166.3555" width="116.5594" height="72.9603" y="260.4854" clip-path="url(#clipPath2)" stroke="none"/>
    </g>
    <g text-rendering="geometricPrecision" stroke-miterlimit="1.45" shape-rendering="geometricPrecision" transform="matrix(1,0,0,1,182,-156)" stroke-linecap="butt">
      <rect fill="none" x="-166.3555" width="116.5594" height="72.9603" y="260.4854" clip-path="url(#clipPath2)"/>
      <text x="-150.7162" font-size="13px" y="277.254" clip-path="url(#clipPath5)" font-family="sans-serif" stroke="none" xml:space="preserve">AddedElement</text>
      <line stroke-linecap="square" clip-path="url(#clipPath5)" fill="none" x1="-165" x2="-50" y1="285" y2="285" stroke-miterlimit="10"/>
      <text x="-161.3555" xml:space="preserve" y="300.8722" clip-path="url(#clipPath5)" font-family="sans-serif" stroke="none">element : EObject</text>
      <text x="-161.3555" xml:space="preserve" y="314.2784" clip-path="url(#clipPath5)" font-family="sans-serif" stroke="none"> </text>
      <text x="-161.3555" xml:space="preserve" y="327.6847" clip-path="url(#clipPath5)" font-family="sans-serif" stroke="none"> </text>
      <text x="-161.3555" xml:space="preserve" y="341.0909" clip-path="url(#clipPath5)" font-family="sans-serif" stroke="none"> </text>
      <text x="-161.3555" xml:space="preserve" y="354.4972" clip-path="url(#clipPath5)" font-family="sans-serif" stroke="none"> </text>
      <line stroke-linecap="square" clip-path="url(#clipPath5)" fill="none" x1="-165" x2="-50" y1="362" y2="362" stroke-miterlimit="10"/>
      <text x="-161.3555" xml:space="preserve" y="377.9034" clip-path="url(#clipPath5)" font-family="sans-serif" stroke="none"> </text>
    </g>
    <g fill="rgb(254,251,223)" text-rendering="geometricPrecision" shape-rendering="geometricPrecision" transform="matrix(1,0,0,1,182,-156)" stroke="rgb(254,251,223)">
      <rect x="-39.6486" width="116.5594" height="72.9603" y="260.4854" clip-path="url(#clipPath2)" stroke="none"/>
    </g>
    <g text-rendering="geometricPrecision" stroke-miterlimit="1.45" shape-rendering="geometricPrecision" transform="matrix(1,0,0,1,182,-156)" stroke-linecap="butt">
      <rect fill="none" x="-39.6486" width="116.5594" height="72.9603" y="260.4854" clip-path="url(#clipPath2)"/>
      <text x="-33.0325" font-size="13px" y="277.254" clip-path="url(#clipPath6)" font-family="sans-serif" stroke="none" xml:space="preserve">RemovedElement</text>
      <line stroke-linecap="square" clip-path="url(#clipPath6)" fill="none" x1="-38" x2="75" y1="285" y2="285" stroke-miterlimit="10"/>
      <text x="-34.6486" xml:space="preserve" y="300.8722" clip-path="url(#clipPath6)" font-family="sans-serif" stroke="none">element : EObject</text>
      <text x="-34.6486" xml:space="preserve" y="314.2784" clip-path="url(#clipPath6)" font-family="sans-serif" stroke="none"> </text>
      <text x="-34.6486" xml:space="preserve" y="327.6847" clip-path="url(#clipPath6)" font-family="sans-serif" stroke="none"> </text>
      <text x="-34.6486" xml:space="preserve" y="341.0909" clip-path="url(#clipPath6)" font-family="sans-serif" stroke="none"> </text>
      <text x="-34.6486" xml:space="preserve" y="354.4972" clip-path="url(#clipPath6)" font-family="sans-serif" stroke="none"> </text>
      <line stroke-linecap="square" clip-path="url(#clipPath6)" fill="none" x1="-38" x2="75" y1="362" y2="362" stroke-miterlimit="10"/>
      <text x="-34.6486" xml:space="preserve" y="377.9034" clip-path="url(#clipPath6)" font-family="sans-serif" stroke="none"> </text>
      <text x="-34.6486" xml:space="preserve" y="391.3097" clip-path="url(#clipPath6)" font-family="sans-serif" stroke="none"> </text>
    </g>
    <g fill="rgb(254,251,223)" text-rendering="geometricPrecision" shape-rendering="geometricPrecision" transform="matrix(1,0,0,1,182,-156)" stroke="rgb(254,251,223)">
      <rect x="83.5869" width="223.8195" height="72.9603" y="260.4854" clip-path="url(#clipPath2)" stroke="none"/>
    </g>
    <g text-rendering="geometricPrecision" stroke-miterlimit="1.45" shape-rendering="geometricPrecision" transform="matrix(1,0,0,1,182,-156)" stroke-linecap="butt">
      <rect fill="none" x="83.5869" width="223.8195" height="72.9603" y="260.4854" clip-path="url(#clipPath2)"/>
      <text x="145.2676" font-size="13px" y="277.254" clip-path="url(#clipPath7)" font-family="sans-serif" stroke="none" xml:space="preserve">ChangedElement</text>
      <line stroke-linecap="square" clip-path="url(#clipPath7)" fill="none" x1="84" x2="306" y1="285" y2="285" stroke-miterlimit="10"/>
      <text x="88.5869" xml:space="preserve" y="300.8722" clip-path="url(#clipPath7)" font-family="sans-serif" stroke="none">fromElement : EObject</text>
      <text x="88.5869" xml:space="preserve" y="314.2784" clip-path="url(#clipPath7)" font-family="sans-serif" stroke="none">toElement : EObject</text>
      <text x="88.5869" xml:space="preserve" y="327.6847" clip-path="url(#clipPath7)" font-family="sans-serif" stroke="none">changedFeatures : EStructuralFeature [ ]</text>
      <text x="88.5869" xml:space="preserve" y="341.0909" clip-path="url(#clipPath7)" font-family="sans-serif" stroke="none"> </text>
      <text x="88.5869" xml:space="preserve" y="354.4972" clip-path="url(#clipPath7)" font-family="sans-serif" stroke="none"> </text>
      <text x="88.5869" xml:space="preserve" y="367.9034" clip-path="url(#clipPath7)" font-family="sans-serif" stroke="none"> </text>
      <text x="88.5869" xml:space="preserve" y="381.3097" clip-path="url(#clipPath7)" font-family="sans-serif" stroke="none"> </text>
      <line stroke-linecap="square" clip-path="url(#clipPath7)" fill="none" x1="84" x2="306" y1="388" y2="388" stroke-miterlimit="10"/>
      <text x="88.5869" xml:space="preserve" y="404.7159" clip-path="url(#clipPath7)" font-family="sans-serif" stroke="none"> </text>
    </g>
    <g fill="rgb(254,251,223)" text-rendering="geometricPrecision" shape-rendering="geometricPrecision" transform="matrix(1,0,0,1,182,-156)" stroke="rgb(254,251,223)">
      <rect x="-166.3555" width="153.7818" height="61.7514" y="176.9405" clip-path="url(#clipPath2)" stroke="none"/>
    </g>
    <g text-rendering="geometricPrecision" stroke-miterlimit="1.45" shape-rendering="geometricPrecision" transform="matrix(1,0,0,1,182,-156)" stroke-linecap="butt">
      <rect fill="none" x="-166.3555" width="153.7818" height="61.7514" y="176.9405" clip-path="url(#clipPath2)"/>
      <text x="-129.5723" font-size="13px" y="193.709" clip-path="url(#clipPath8)" font-family="sans-serif" stroke="none" xml:space="preserve">LabelProvider</text>
      <line stroke-linecap="square" clip-path="url(#clipPath8)" fill="none" x1="-165" x2="-13" y1="201" y2="201" stroke-miterlimit="10"/>
      <line stroke-linecap="square" clip-path="url(#clipPath8)" fill="none" x1="-165" x2="-13" y1="211" y2="211" stroke-miterlimit="10"/>
      <text x="-161.3555" xml:space="preserve" y="227.3272" clip-path="url(#clipPath8)" font-family="sans-serif" stroke="none">getLabel (EObject) : String</text>
      <text x="-161.3555" xml:space="preserve" y="240.7334" clip-path="url(#clipPath8)" font-family="sans-serif" stroke="none"> </text>
      <path fill="none" d="M145.5081 205.7083 L198.6939 205.7083" clip-path="url(#clipPath2)"/>
      <path d="M206.6939 205.7083 L194.6939 200.7083 L197.6939 205.7083 L194.6939 210.7083 Z" clip-path="url(#clipPath2)" stroke="none"/>
      <text x="153.1051" xml:space="preserve" y="195.5314" clip-path="url(#clipPath2)" font-family="sans-serif" stroke="none">diffs [0..*]</text>
      <path fill="none" d="M-108.0758 260.4822 L-108.0758 253.5754 L257.0576 253.5754 L257.0576 248.5488" clip-path="url(#clipPath2)"/>
      <path fill="white" d="M257.0576 233.5488 L251.0576 249.5488 L263.0576 249.5488 Z" clip-path="url(#clipPath2)" stroke="none"/>
      <path fill="none" d="M257.0576 233.5488 L251.0576 249.5488 L263.0576 249.5488 Z" clip-path="url(#clipPath2)"/>
      <path fill="none" d="M18.631 260.4822 L18.631 253.5754 L257.0576 253.5754 L257.0576 248.5488" clip-path="url(#clipPath2)"/>
      <path fill="white" d="M257.0576 233.5488 L251.0576 249.5488 L263.0576 249.5488 Z" clip-path="url(#clipPath2)" stroke="none"/>
      <path fill="none" d="M257.0576 233.5488 L251.0576 249.5488 L263.0576 249.5488 Z" clip-path="url(#clipPath2)"/>
      <path fill="none" d="M195.4966 260.4822 L195.4966 253.5754 L257.0576 253.5754 L257.0576 248.5488" clip-path="url(#clipPath2)"/>
      <path fill="white" d="M257.0576 233.5488 L251.0576 249.5488 L263.0576 249.5488 Z" clip-path="url(#clipPath2)" stroke="none"/>
      <path fill="none" d="M257.0576 233.5488 L251.0576 249.5488 L263.0576 249.5488 Z" clip-path="url(#clipPath2)"/>
      <path fill="none" d="M34.7207 205.7083 L-4.5876 205.7083" clip-path="url(#clipPath2)"/>
      <path d="M-12.5876 205.7083 L-0.5876 210.7083 L-3.5876 205.7083 L-0.5876 200.7083 Z" clip-path="url(#clipPath2)" stroke="none"/>
      <text x="-8.7746" xml:space="preserve" y="197.0258" clip-path="url(#clipPath2)" font-family="sans-serif" stroke="none">lp [1..1]</text>
    </g>
  </g>
</svg>
