<?xml version="1.0" encoding="UTF-8"?><svg xmlns="http://www.w3.org/2000/svg" xmlns:xlink="http://www.w3.org/1999/xlink" fill-opacity="1" color-rendering="auto" color-interpolation="auto" text-rendering="auto" stroke="black" stroke-linecap="square" width="601" stroke-miterlimit="10" shape-rendering="auto" stroke-opacity="1" fill="black" stroke-dasharray="none" font-weight="normal" stroke-width="1" height="218" font-family="'Dialog'" font-style="normal" stroke-linejoin="miter" font-size="12px" stroke-dashoffset="0" image-rendering="auto">
  <!--Generated by ySVG 2.5-->
  <defs id="genericDefs"/>
  <g>
    <defs id="defs1">
      <clipPath clipPathUnits="userSpaceOnUse" id="clipPath1">
        <path d="M0 0 L601 0 L601 218 L0 218 L0 0 Z"/>
      </clipPath>
      <clipPath clipPathUnits="userSpaceOnUse" id="clipPath2">
        <path d="M-435 -29 L166 -29 L166 189 L-435 189 L-435 -29 Z"/>
      </clipPath>
      <clipPath clipPathUnits="userSpaceOnUse" id="clipPath3">
        <path d="M-165 -9 L-165 36 L-77 36 L-77 -9 Z"/>
      </clipPath>
      <clipPath clipPathUnits="userSpaceOnUse" id="clipPath4">
        <path d="M-179 109 L-179 173 L-63 173 L-63 109 Z"/>
      </clipPath>
      <clipPath clipPathUnits="userSpaceOnUse" id="clipPath5">
        <path d="M22 -13 L22 40 L138 40 L138 -13 Z"/>
      </clipPath>
      <clipPath clipPathUnits="userSpaceOnUse" id="clipPath6">
        <path d="M22 114 L22 168 L138 168 L138 114 Z"/>
      </clipPath>
      <clipPath clipPathUnits="userSpaceOnUse" id="clipPath7">
        <path d="M-419 88 L-419 173 L-266 173 L-266 88 Z"/>
      </clipPath>
    </defs>
    <g fill="white" text-rendering="geometricPrecision" shape-rendering="geometricPrecision" transform="translate(435,29)" stroke="white">
      <rect x="-435" width="601" height="218" y="-29" clip-path="url(#clipPath2)" stroke="none"/>
    </g>
    <g fill="rgb(254,251,223)" text-rendering="geometricPrecision" shape-rendering="geometricPrecision" transform="matrix(1,0,0,1,435,29)" stroke="rgb(254,251,223)">
      <rect x="-165.9539" width="88.5549" height="45.8749" y="-9.3088" clip-path="url(#clipPath2)" stroke="none"/>
    </g>
    <g text-rendering="geometricPrecision" stroke-miterlimit="1.45" shape-rendering="geometricPrecision" transform="matrix(1,0,0,1,435,29)" stroke-linecap="butt">
      <rect fill="none" x="-165.9539" width="88.5549" height="45.8749" y="-9.3088" clip-path="url(#clipPath2)"/>
      <text x="-156.0046" font-size="13px" y="7.4598" clip-path="url(#clipPath3)" font-family="sans-serif" stroke="none" xml:space="preserve">RepairShop</text>
      <line stroke-linecap="square" clip-path="url(#clipPath3)" fill="none" x1="-164" x2="-78" y1="15" y2="15" stroke-miterlimit="10"/>
      <text x="-160.9539" xml:space="preserve" y="31.0779" clip-path="url(#clipPath3)" font-family="sans-serif" stroke="none">name : String</text>
      <line stroke-linecap="square" clip-path="url(#clipPath3)" fill="none" x1="-164" x2="-78" y1="38" y2="38" stroke-miterlimit="10"/>
    </g>
    <g fill="rgb(254,251,223)" text-rendering="geometricPrecision" shape-rendering="geometricPrecision" transform="matrix(1,0,0,1,435,29)" stroke="rgb(254,251,223)">
      <rect x="-179.9562" width="116.5594" height="64.4406" y="109.3763" clip-path="url(#clipPath2)" stroke="none"/>
    </g>
    <g text-rendering="geometricPrecision" stroke-miterlimit="1.45" shape-rendering="geometricPrecision" transform="matrix(1,0,0,1,435,29)" stroke-linecap="butt">
      <rect fill="none" x="-179.9562" width="116.5594" height="64.4406" y="109.3763" clip-path="url(#clipPath2)"/>
      <text x="-132.1565" font-size="13px" y="126.1449" clip-path="url(#clipPath4)" font-family="sans-serif" stroke="none" xml:space="preserve">Job</text>
      <line stroke-linecap="square" clip-path="url(#clipPath4)" fill="none" x1="-178" x2="-64" y1="133" y2="133" stroke-miterlimit="10"/>
      <text x="-174.9562" xml:space="preserve" y="149.763" clip-path="url(#clipPath4)" font-family="sans-serif" stroke="none">jobId : String</text>
      <text x="-174.9562" xml:space="preserve" y="163.1693" clip-path="url(#clipPath4)" font-family="sans-serif" stroke="none">tags : String [ ]</text>
      <text x="-174.9562" xml:space="preserve" y="176.5755" clip-path="url(#clipPath4)" font-family="sans-serif" stroke="none"> </text>
      <text x="-174.9562" xml:space="preserve" y="189.9818" clip-path="url(#clipPath4)" font-family="sans-serif" stroke="none"> </text>
      <text x="-174.9562" xml:space="preserve" y="203.388" clip-path="url(#clipPath4)" font-family="sans-serif" stroke="none"> </text>
      <text x="-174.9562" xml:space="preserve" y="216.7943" clip-path="url(#clipPath4)" font-family="sans-serif" stroke="none"> </text>
      <line stroke-linecap="square" clip-path="url(#clipPath4)" fill="none" x1="-178" x2="-64" y1="224" y2="224" stroke-miterlimit="10"/>
      <text x="-174.9562" xml:space="preserve" y="240.2005" clip-path="url(#clipPath4)" font-family="sans-serif" stroke="none"> </text>
    </g>
    <g fill="rgb(254,251,223)" text-rendering="geometricPrecision" shape-rendering="geometricPrecision" transform="matrix(1,0,0,1,435,29)" stroke="rgb(254,251,223)">
      <rect x="22.4989" width="116.5594" height="53.2995" y="-13.0211" clip-path="url(#clipPath2)" stroke="none"/>
    </g>
    <g text-rendering="geometricPrecision" stroke-miterlimit="1.45" shape-rendering="geometricPrecision" transform="matrix(1,0,0,1,435,29)" stroke-linecap="butt">
      <rect fill="none" x="22.4989" width="116.5594" height="53.2995" y="-13.0211" clip-path="url(#clipPath2)"/>
      <text x="68.8608" font-size="13px" y="3.7474" clip-path="url(#clipPath5)" font-family="sans-serif" stroke="none" xml:space="preserve">Skill</text>
      <line stroke-linecap="square" clip-path="url(#clipPath5)" fill="none" x1="23" x2="138" y1="11" y2="11" stroke-miterlimit="10"/>
      <text x="27.4989" xml:space="preserve" y="27.3656" clip-path="url(#clipPath5)" font-family="sans-serif" stroke="none">name : String</text>
      <text x="27.4989" xml:space="preserve" y="40.7719" clip-path="url(#clipPath5)" font-family="sans-serif" stroke="none"> </text>
      <text x="27.4989" xml:space="preserve" y="54.1781" clip-path="url(#clipPath5)" font-family="sans-serif" stroke="none"> </text>
      <text x="27.4989" xml:space="preserve" y="67.5844" clip-path="url(#clipPath5)" font-family="sans-serif" stroke="none"> </text>
      <text x="27.4989" xml:space="preserve" y="80.9906" clip-path="url(#clipPath5)" font-family="sans-serif" stroke="none"> </text>
      <text x="27.4989" xml:space="preserve" y="94.3969" clip-path="url(#clipPath5)" font-family="sans-serif" stroke="none"> </text>
      <line stroke-linecap="square" clip-path="url(#clipPath5)" fill="none" x1="23" x2="138" y1="101" y2="101" stroke-miterlimit="10"/>
      <text x="27.4989" xml:space="preserve" y="117.8031" clip-path="url(#clipPath5)" font-family="sans-serif" stroke="none"> </text>
      <text x="27.4989" xml:space="preserve" y="131.2094" clip-path="url(#clipPath5)" font-family="sans-serif" stroke="none"> </text>
    </g>
    <g fill="rgb(254,251,223)" text-rendering="geometricPrecision" shape-rendering="geometricPrecision" transform="matrix(1,0,0,1,435,29)" stroke="rgb(254,251,223)">
      <rect x="22.4989" width="116.5594" height="54.9379" y="114.1277" clip-path="url(#clipPath2)" stroke="none"/>
    </g>
    <g text-rendering="geometricPrecision" stroke-miterlimit="1.45" shape-rendering="geometricPrecision" transform="matrix(1,0,0,1,435,29)" stroke-linecap="butt">
      <rect fill="none" x="22.4989" width="116.5594" height="54.9379" y="114.1277" clip-path="url(#clipPath2)"/>
      <text x="59.8345" font-size="13px" y="130.8962" clip-path="url(#clipPath6)" font-family="sans-serif" stroke="none" xml:space="preserve">Worker</text>
      <line stroke-linecap="square" clip-path="url(#clipPath6)" fill="none" x1="23" x2="138" y1="138" y2="138" stroke-miterlimit="10"/>
      <text x="27.4989" xml:space="preserve" y="154.5144" clip-path="url(#clipPath6)" font-family="sans-serif" stroke="none">name : String</text>
      <text x="27.4989" xml:space="preserve" y="167.9207" clip-path="url(#clipPath6)" font-family="sans-serif" stroke="none"> </text>
      <text x="27.4989" xml:space="preserve" y="181.3269" clip-path="url(#clipPath6)" font-family="sans-serif" stroke="none"> </text>
      <text x="27.4989" xml:space="preserve" y="194.7332" clip-path="url(#clipPath6)" font-family="sans-serif" stroke="none"> </text>
      <text x="27.4989" xml:space="preserve" y="208.1394" clip-path="url(#clipPath6)" font-family="sans-serif" stroke="none"> </text>
      <text x="27.4989" xml:space="preserve" y="221.5457" clip-path="url(#clipPath6)" font-family="sans-serif" stroke="none"> </text>
      <line stroke-linecap="square" clip-path="url(#clipPath6)" fill="none" x1="23" x2="138" y1="229" y2="229" stroke-miterlimit="10"/>
      <text x="27.4989" xml:space="preserve" y="244.9519" clip-path="url(#clipPath6)" font-family="sans-serif" stroke="none"> </text>
    </g>
    <g fill="rgb(254,251,223)" text-rendering="geometricPrecision" shape-rendering="geometricPrecision" transform="matrix(1,0,0,1,435,29)" stroke="rgb(254,251,223)">
      <rect x="-419.6336" width="153.7818" height="85.0608" y="88.7562" clip-path="url(#clipPath2)" stroke="none"/>
    </g>
    <g text-rendering="geometricPrecision" stroke-miterlimit="1.45" shape-rendering="geometricPrecision" transform="matrix(1,0,0,1,435,29)" stroke-linecap="butt">
      <rect fill="none" x="-419.6336" width="153.7818" height="85.0608" y="88.7562" clip-path="url(#clipPath2)"/>
      <text x="-361.17" font-size="13px" y="105.5247" clip-path="url(#clipPath7)" font-family="sans-serif" stroke="none" xml:space="preserve">Status</text>
      <line stroke-linecap="square" clip-path="url(#clipPath7)" fill="none" x1="-418" x2="-266" y1="113" y2="113" stroke-miterlimit="10"/>
      <text x="-414.6336" xml:space="preserve" y="129.1429" clip-path="url(#clipPath7)" font-family="sans-serif" stroke="none">statusId : String</text>
      <text x="-414.6336" xml:space="preserve" y="142.5491" clip-path="url(#clipPath7)" font-family="sans-serif" stroke="none">completed : Boolean</text>
      <text x="-414.6336" xml:space="preserve" y="155.9554" clip-path="url(#clipPath7)" font-family="sans-serif" stroke="none">status : String</text>
      <text x="-414.6336" xml:space="preserve" y="169.3616" clip-path="url(#clipPath7)" font-family="sans-serif" stroke="none">lastModified : String</text>
      <line stroke-linecap="square" clip-path="url(#clipPath7)" fill="none" x1="-418" x2="-266" y1="176" y2="176" stroke-miterlimit="10"/>
      <text x="-414.6336" xml:space="preserve" y="192.7679" clip-path="url(#clipPath7)" font-family="sans-serif" stroke="none"> </text>
      <path fill="none" d="M-155.7898 43.5628 L-155.7898 101.3569" clip-path="url(#clipPath2)"/>
      <path d="M-155.7898 36.5628 L-150.7898 43.5628 L-155.7898 50.5628 L-160.7898 43.5628 Z" clip-path="url(#clipPath2)" stroke="none"/>
      <path d="M-155.7898 109.3569 L-150.7898 97.3569 L-155.7898 100.3569 L-160.7898 97.3569 Z" clip-path="url(#clipPath2)" stroke="none"/>
      <text x="-152.3198" xml:space="preserve" y="77.0269" clip-path="url(#clipPath2)" font-family="sans-serif" stroke="none">backlog [0..*]</text>
      <path fill="none" d="M-70.4389 13.6286 L14.49 13.6286" clip-path="url(#clipPath2)"/>
      <path d="M-77.4389 13.6286 L-70.4389 8.6286 L-63.4389 13.6286 L-70.4389 18.6286 Z" clip-path="url(#clipPath2)" stroke="none"/>
      <path d="M22.49 13.6286 L10.49 8.6286 L13.49 13.6286 L10.49 18.6286 Z" clip-path="url(#clipPath2)" stroke="none"/>
      <text x="-37.2967" xml:space="preserve" y="5.1904" clip-path="url(#clipPath2)" font-family="sans-serif" stroke="none">skills [0..*]</text>
      <path fill="none" d="M-72.3501 40.6326 L24.0455 109.4889" clip-path="url(#clipPath2)"/>
      <path d="M-78.0461 36.5638 L-69.4438 36.5639 L-66.654 44.7013 L-75.2563 44.7012 Z" clip-path="url(#clipPath2)" stroke="none"/>
      <path d="M30.5553 114.1389 L23.6969 103.0953 L23.2318 108.9077 L17.8844 111.2325 Z" clip-path="url(#clipPath2)" stroke="none"/>
      <text x="-76.6073" xml:space="preserve" y="98.5714" clip-path="url(#clipPath2)" font-family="sans-serif" stroke="none">workers [0..*]</text>
      <path fill="none" d="M32.9539 114.1387 L32.9539 48.2779" clip-path="url(#clipPath2)"/>
      <path d="M32.9539 40.2779 L27.9539 52.2779 L32.9539 49.2779 L37.9539 52.2779 Z" clip-path="url(#clipPath2)" stroke="none"/>
      <text x="-16.9802" xml:space="preserve" y="67.3128" clip-path="url(#clipPath2)" font-family="sans-serif" stroke="none">mainSkill [0..1]</text>
      <path fill="none" d="M121.783 114.128 L121.783 48.2855" clip-path="url(#clipPath2)"/>
      <path d="M121.783 40.2855 L116.783 52.2855 L121.783 49.2855 L126.783 52.2855 Z" clip-path="url(#clipPath2)" stroke="none"/>
      <text x="36.748" xml:space="preserve" y="96.3813" clip-path="url(#clipPath2)" font-family="sans-serif" stroke="none">secondarySkills [0..*]</text>
      <path fill="none" d="M15.5035 141.5966 L-55.4202 141.5966" clip-path="url(#clipPath2)"/>
      <path d="M22.5035 141.5966 L15.5035 146.5966 L8.5035 141.5966 L15.5035 136.5966 Z" clip-path="url(#clipPath2)" stroke="none"/>
      <path d="M-63.4202 141.5966 L-51.4202 146.5966 L-54.4202 141.5966 L-51.4202 136.5966 Z" clip-path="url(#clipPath2)" stroke="none"/>
      <text x="-49.8296" xml:space="preserve" y="131.4854" clip-path="url(#clipPath2)" font-family="sans-serif" stroke="none">queue [0..*]</text>
      <path fill="none" d="M-179.9873 159 L-257.8452 159" clip-path="url(#clipPath2)"/>
      <path d="M-265.8452 159 L-253.8452 164 L-256.8452 159 L-253.8452 154 Z" clip-path="url(#clipPath2)" stroke="none"/>
      <text x="-250.1242" xml:space="preserve" y="148.9003" clip-path="url(#clipPath2)" font-family="sans-serif" stroke="none">status [0..1]</text>
    </g>
  </g>
</svg>
