<?xml version="1.0" encoding="UTF-8"?><svg xmlns="http://www.w3.org/2000/svg" xmlns:xlink="http://www.w3.org/1999/xlink" fill-opacity="1" color-rendering="auto" color-interpolation="auto" text-rendering="auto" stroke="black" stroke-linecap="square" width="526" stroke-miterlimit="10" shape-rendering="auto" stroke-opacity="1" fill="black" stroke-dasharray="none" font-weight="normal" stroke-width="1" height="204" font-family="'Dialog'" font-style="normal" stroke-linejoin="miter" font-size="12px" stroke-dashoffset="0" image-rendering="auto">
  <!--Generated by ySVG 2.5-->
  <defs id="genericDefs"/>
  <g>
    <defs id="defs1">
      <clipPath clipPathUnits="userSpaceOnUse" id="clipPath1">
        <path d="M0 0 L526 0 L526 204 L0 204 L0 0 Z"/>
      </clipPath>
      <clipPath clipPathUnits="userSpaceOnUse" id="clipPath2">
        <path d="M-417 300 L109 300 L109 504 L-417 504 L-417 300 Z"/>
      </clipPath>
      <clipPath clipPathUnits="userSpaceOnUse" id="clipPath3">
        <path d="M-149 315 L-149 338 L-61 338 L-61 315 Z"/>
      </clipPath>
      <clipPath clipPathUnits="userSpaceOnUse" id="clipPath4">
        <path d="M-320 315 L-320 338 L-232 338 L-232 315 Z"/>
      </clipPath>
      <clipPath clipPathUnits="userSpaceOnUse" id="clipPath5">
        <path d="M-240 411 L-240 434 L-152 434 L-152 411 Z"/>
      </clipPath>
      <clipPath clipPathUnits="userSpaceOnUse" id="clipPath6">
        <path d="M-143 411 L-143 434 L-55 434 L-55 411 Z"/>
      </clipPath>
      <clipPath clipPathUnits="userSpaceOnUse" id="clipPath7">
        <path d="M-200 464 L-200 487 L-112 487 L-112 464 Z"/>
      </clipPath>
      <clipPath clipPathUnits="userSpaceOnUse" id="clipPath8">
        <path d="M-60 464 L-60 487 L58 487 L58 464 Z"/>
      </clipPath>
      <clipPath clipPathUnits="userSpaceOnUse" id="clipPath9">
        <path d="M-401 411 L-401 434 L-285 434 L-285 411 Z"/>
      </clipPath>
      <clipPath clipPathUnits="userSpaceOnUse" id="clipPath10">
        <path d="M-18 403 L-18 426 L94 426 L94 403 Z"/>
      </clipPath>
    </defs>
    <g fill="white" text-rendering="geometricPrecision" shape-rendering="geometricPrecision" transform="translate(417,-300)" stroke="white">
      <rect x="-417" width="526" height="204" y="300" clip-path="url(#clipPath2)" stroke="none"/>
    </g>
    <g fill="rgb(187,204,238)" text-rendering="geometricPrecision" shape-rendering="geometricPrecision" transform="matrix(1,0,0,1,417,-300)" stroke="rgb(187,204,238)">
      <rect x="-149.9562" width="88.5549" height="23.4806" y="315.8243" clip-path="url(#clipPath2)" stroke="none"/>
    </g>
    <g text-rendering="geometricPrecision" stroke-miterlimit="1.45" shape-rendering="geometricPrecision" transform="matrix(1,0,0,1,417,-300)" stroke-linecap="butt">
      <rect fill="none" x="-149.9562" width="88.5549" height="23.4806" y="315.8243" clip-path="url(#clipPath2)"/>
      <text x="-142.5173" font-size="13px" y="332.5929" clip-path="url(#clipPath3)" font-family="sans-serif" stroke="none" xml:space="preserve">Alice:Worker</text>
    </g>
    <g fill="rgb(187,204,238)" text-rendering="geometricPrecision" shape-rendering="geometricPrecision" transform="matrix(1,0,0,1,417,-300)" stroke="rgb(187,204,238)">
      <rect x="-320.4992" width="88.5549" height="23.4806" y="315.8243" clip-path="url(#clipPath2)" stroke="none"/>
    </g>
    <g text-rendering="geometricPrecision" stroke-miterlimit="1.45" shape-rendering="geometricPrecision" transform="matrix(1,0,0,1,417,-300)" stroke-linecap="butt">
      <rect fill="none" x="-320.4992" width="88.5549" height="23.4806" y="315.8243" clip-path="url(#clipPath2)"/>
      <text x="-310.5372" font-size="13px" y="332.5929" clip-path="url(#clipPath4)" font-family="sans-serif" stroke="none" xml:space="preserve">Bob:Worker</text>
    </g>
    <g fill="rgb(245,165,130)" text-rendering="geometricPrecision" shape-rendering="geometricPrecision" transform="matrix(1,0,0,1,417,-300)" stroke="rgb(245,165,130)">
      <rect x="-240.647" width="88.5549" height="23.4806" y="411.304" clip-path="url(#clipPath2)" stroke="none"/>
    </g>
    <g text-rendering="geometricPrecision" stroke-miterlimit="1.45" shape-rendering="geometricPrecision" transform="matrix(1,0,0,1,417,-300)" stroke-linecap="butt">
      <rect fill="none" x="-240.647" width="88.5549" height="23.4806" y="411.304" clip-path="url(#clipPath2)"/>
      <text x="-220.9445" font-size="13px" y="428.0725" clip-path="url(#clipPath5)" font-family="sans-serif" stroke="none" xml:space="preserve">job1:Job</text>
    </g>
    <g fill="rgb(245,165,130)" text-rendering="geometricPrecision" shape-rendering="geometricPrecision" transform="matrix(1,0,0,1,417,-300)" stroke="rgb(245,165,130)">
      <rect x="-143.2749" width="88.5549" height="23.4806" y="411.304" clip-path="url(#clipPath2)" stroke="none"/>
    </g>
    <g text-rendering="geometricPrecision" stroke-miterlimit="1.45" shape-rendering="geometricPrecision" transform="matrix(1,0,0,1,417,-300)" stroke-linecap="butt">
      <rect fill="none" x="-143.2749" width="88.5549" height="23.4806" y="411.304" clip-path="url(#clipPath2)"/>
      <text x="-123.5724" font-size="13px" y="428.0725" clip-path="url(#clipPath6)" font-family="sans-serif" stroke="none" xml:space="preserve">job2:Job</text>
    </g>
    <g fill="rgb(245,165,130)" text-rendering="geometricPrecision" shape-rendering="geometricPrecision" transform="matrix(1,0,0,1,417,-300)" stroke="rgb(245,165,130)">
      <rect x="-200.4906" width="88.5549" height="23.4806" y="464.7846" clip-path="url(#clipPath2)" stroke="none"/>
    </g>
    <g text-rendering="geometricPrecision" stroke-miterlimit="1.45" shape-rendering="geometricPrecision" transform="matrix(1,0,0,1,417,-300)" stroke-linecap="butt">
      <rect fill="none" x="-200.4906" width="88.5549" height="23.4806" y="464.7846" clip-path="url(#clipPath2)"/>
      <text x="-185.1172" font-size="13px" y="481.5532" clip-path="url(#clipPath7)" font-family="sans-serif" stroke="none" xml:space="preserve">st1:Status</text>
    </g>
    <g fill="rgb(255,238,153)" text-rendering="geometricPrecision" shape-rendering="geometricPrecision" transform="matrix(1,0,0,1,417,-300)" stroke="rgb(255,238,153)">
      <rect x="-60.8749" width="118.3738" height="23.4806" y="464.7846" clip-path="url(#clipPath2)" stroke="none"/>
    </g>
    <g text-rendering="geometricPrecision" stroke-miterlimit="1.45" shape-rendering="geometricPrecision" transform="matrix(1,0,0,1,417,-300)" stroke-linecap="butt">
      <rect fill="none" x="-60.8749" width="118.3738" height="23.4806" y="464.7846" clip-path="url(#clipPath2)"/>
      <text x="-56.5952" font-size="13px" y="481.5532" clip-path="url(#clipPath8)" font-family="sans-serif" stroke="none" xml:space="preserve">DataRecovery:Skill</text>
    </g>
    <g fill="rgb(255,238,153)" text-rendering="geometricPrecision" shape-rendering="geometricPrecision" transform="matrix(1,0,0,1,417,-300)" stroke="rgb(255,238,153)">
      <rect x="-401.7981" width="116.5594" height="23.4806" y="411.304" clip-path="url(#clipPath2)" stroke="none"/>
    </g>
    <g text-rendering="geometricPrecision" stroke-miterlimit="1.45" shape-rendering="geometricPrecision" transform="matrix(1,0,0,1,417,-300)" stroke-linecap="butt">
      <rect fill="none" x="-401.7981" width="116.5594" height="23.4806" y="411.304" clip-path="url(#clipPath2)"/>
      <text x="-399.5079" font-size="13px" y="428.0725" clip-path="url(#clipPath9)" font-family="sans-serif" stroke="none" xml:space="preserve">Microsoldering:Skill</text>
    </g>
    <g fill="rgb(255,238,153)" text-rendering="geometricPrecision" shape-rendering="geometricPrecision" transform="matrix(1,0,0,1,417,-300)" stroke="rgb(255,238,153)">
      <rect x="-18.8896" width="112.8032" height="23.4806" y="403.6262" clip-path="url(#clipPath2)" stroke="none"/>
    </g>
    <g text-rendering="geometricPrecision" stroke-miterlimit="1.45" shape-rendering="geometricPrecision" transform="matrix(1,0,0,1,417,-300)" stroke-linecap="butt">
      <rect fill="none" x="-18.8896" width="112.8032" height="23.4806" y="403.6262" clip-path="url(#clipPath2)"/>
      <text x="-13.0534" font-size="13px" y="420.3948" clip-path="url(#clipPath10)" font-family="sans-serif" stroke="none" xml:space="preserve">Disassembly:Skill</text>
      <path fill="none" d="M-246.2265 344.9915 L-203.376 404.7748" clip-path="url(#clipPath2)"/>
      <path d="M-250.3045 339.302 L-242.1626 342.0786 L-242.1485 350.6809 L-250.2904 347.9044 Z" clip-path="url(#clipPath2)" stroke="none"/>
      <path d="M-198.7155 411.277 L-201.6424 398.6108 L-203.9586 403.962 L-209.7702 404.4366 Z" clip-path="url(#clipPath2)" stroke="none"/>
      <text x="-219.8728" xml:space="preserve" y="379.4646" clip-path="url(#clipPath2)" font-family="sans-serif" stroke="none">queue</text>
      <path fill="none" d="M-104.3712 346.2494 L-100.3774 403.3235" clip-path="url(#clipPath2)"/>
      <path d="M-104.8599 339.2665 L-99.3834 345.9004 L-103.8826 353.2324 L-109.359 346.5984 Z" clip-path="url(#clipPath2)" stroke="none"/>
      <path d="M-99.819 411.304 L-95.6688 398.9842 L-100.4472 402.3259 L-105.6444 399.6823 Z" clip-path="url(#clipPath2)" stroke="none"/>
      <text x="-99.2378" xml:space="preserve" y="397.2249" clip-path="url(#clipPath2)" font-family="sans-serif" stroke="none">queue</text>
      <path fill="none" d="M-111.5413 434.7693 L-137.8266 459.3387" clip-path="url(#clipPath2)"/>
      <path d="M-143.671 464.8016 L-131.4901 460.26 L-137.096 458.6559 L-138.3187 452.9545 Z" clip-path="url(#clipPath2)" stroke="none"/>
      <text x="-124.8355" xml:space="preserve" y="456.1831" clip-path="url(#clipPath2)" font-family="sans-serif" stroke="none">status</text>
      <path fill="none" d="M-97.4783 339.3113 L-14.476 458.207" clip-path="url(#clipPath2)"/>
      <path d="M-9.8966 464.7667 L-12.6658 452.065 L-15.0484 457.387 L-20.8654 457.7892 Z" clip-path="url(#clipPath2)" stroke="none"/>
      <text x="-11.7152" xml:space="preserve" y="453.4533" clip-path="url(#clipPath2)" font-family="sans-serif" stroke="none">secondarySkills</text>
      <path fill="none" d="M-284.486 339.2898 L-330.6225 404.7478" clip-path="url(#clipPath2)"/>
      <path d="M-335.2314 411.2868 L-324.2312 404.3589 L-330.0464 403.9304 L-332.405 398.5978 Z" clip-path="url(#clipPath2)" stroke="none"/>
      <text x="-298.4347" xml:space="preserve" y="381.2547" clip-path="url(#clipPath2)" font-family="sans-serif" stroke="none">mainSkill</text>
      <path fill="none" d="M-86.5563 339.2901 L11.5184 399.4278" clip-path="url(#clipPath2)"/>
      <path d="M18.3384 403.6096 L10.7221 393.0743 L10.6659 398.905 L5.4947 401.5993 Z" clip-path="url(#clipPath2)" stroke="none"/>
      <text x="-6.5967" xml:space="preserve" y="379.6049" clip-path="url(#clipPath2)" font-family="sans-serif" stroke="none">mainSkill</text>
    </g>
  </g>
</svg>
