<?xml version="1.0" encoding="UTF-8"?><svg xmlns="http://www.w3.org/2000/svg" xmlns:xlink="http://www.w3.org/1999/xlink" fill-opacity="1" color-rendering="auto" color-interpolation="auto" text-rendering="auto" stroke="black" stroke-linecap="square" width="360" stroke-miterlimit="10" shape-rendering="auto" stroke-opacity="1" fill="black" stroke-dasharray="none" font-weight="normal" stroke-width="1" height="230" font-family="'Dialog'" font-style="normal" stroke-linejoin="miter" font-size="12px" stroke-dashoffset="0" image-rendering="auto">
  <!--Generated by ySVG 2.5-->
  <defs id="genericDefs"/>
  <g>
    <defs id="defs1">
      <clipPath clipPathUnits="userSpaceOnUse" id="clipPath1">
        <path d="M0 0 L360 0 L360 230 L0 230 L0 0 Z"/>
      </clipPath>
      <clipPath clipPathUnits="userSpaceOnUse" id="clipPath2">
        <path d="M-195 94 L165 94 L165 324 L-195 324 L-195 94 Z"/>
      </clipPath>
      <clipPath clipPathUnits="userSpaceOnUse" id="clipPath3">
        <path d="M-179 109 L-179 173 L-63 173 L-63 109 Z"/>
      </clipPath>
      <clipPath clipPathUnits="userSpaceOnUse" id="clipPath4">
        <path d="M22 255 L22 308 L138 308 L138 255 Z"/>
      </clipPath>
      <clipPath clipPathUnits="userSpaceOnUse" id="clipPath5">
        <path d="M22 114 L22 168 L138 168 L138 114 Z"/>
      </clipPath>
      <clipPath clipPathUnits="userSpaceOnUse" id="clipPath6">
        <path d="M-179 223 L-179 308 L-26 308 L-26 223 Z"/>
      </clipPath>
    </defs>
    <g fill="white" text-rendering="geometricPrecision" shape-rendering="geometricPrecision" transform="translate(195,-94)" stroke="white">
      <rect x="-195" width="360" height="230" y="94" clip-path="url(#clipPath2)" stroke="none"/>
    </g>
    <g fill="rgb(254,251,223)" text-rendering="geometricPrecision" shape-rendering="geometricPrecision" transform="matrix(1,0,0,1,195,-94)" stroke="rgb(254,251,223)">
      <rect x="-179.9562" width="116.5594" height="64.4406" y="109.3763" clip-path="url(#clipPath2)" stroke="none"/>
    </g>
    <g text-rendering="geometricPrecision" stroke-miterlimit="1.45" shape-rendering="geometricPrecision" transform="matrix(1,0,0,1,195,-94)" stroke-linecap="butt">
      <rect fill="none" x="-179.9562" width="116.5594" height="64.4406" y="109.3763" clip-path="url(#clipPath2)"/>
      <text x="-132.1565" font-size="13px" y="126.1449" clip-path="url(#clipPath3)" font-family="sans-serif" stroke="none" xml:space="preserve">Job</text>
      <line stroke-linecap="square" clip-path="url(#clipPath3)" fill="none" x1="-178" x2="-64" y1="133" y2="133" stroke-miterlimit="10"/>
      <text x="-174.9562" xml:space="preserve" y="149.763" clip-path="url(#clipPath3)" font-family="sans-serif" stroke="none">jobId : String</text>
      <text x="-174.9562" xml:space="preserve" y="163.1693" clip-path="url(#clipPath3)" font-family="sans-serif" stroke="none">tags : String [ ]</text>
      <text x="-174.9562" xml:space="preserve" y="176.5755" clip-path="url(#clipPath3)" font-family="sans-serif" stroke="none"> </text>
      <text x="-174.9562" xml:space="preserve" y="189.9818" clip-path="url(#clipPath3)" font-family="sans-serif" stroke="none"> </text>
      <text x="-174.9562" xml:space="preserve" y="203.388" clip-path="url(#clipPath3)" font-family="sans-serif" stroke="none"> </text>
      <text x="-174.9562" xml:space="preserve" y="216.7943" clip-path="url(#clipPath3)" font-family="sans-serif" stroke="none"> </text>
      <line stroke-linecap="square" clip-path="url(#clipPath3)" fill="none" x1="-178" x2="-64" y1="224" y2="224" stroke-miterlimit="10"/>
      <text x="-174.9562" xml:space="preserve" y="240.2005" clip-path="url(#clipPath3)" font-family="sans-serif" stroke="none"> </text>
    </g>
    <g fill="rgb(254,251,223)" text-rendering="geometricPrecision" shape-rendering="geometricPrecision" transform="matrix(1,0,0,1,195,-94)" stroke="rgb(254,251,223)">
      <rect x="22.4989" width="116.5594" height="53.2995" y="255.5174" clip-path="url(#clipPath2)" stroke="none"/>
    </g>
    <g text-rendering="geometricPrecision" stroke-miterlimit="1.45" shape-rendering="geometricPrecision" transform="matrix(1,0,0,1,195,-94)" stroke-linecap="butt">
      <rect fill="none" x="22.4989" width="116.5594" height="53.2995" y="255.5174" clip-path="url(#clipPath2)"/>
      <text x="68.8608" font-size="13px" y="272.286" clip-path="url(#clipPath4)" font-family="sans-serif" stroke="none" xml:space="preserve">Skill</text>
      <line stroke-linecap="square" clip-path="url(#clipPath4)" fill="none" x1="23" x2="138" y1="280" y2="280" stroke-miterlimit="10"/>
      <text x="27.4989" xml:space="preserve" y="295.9041" clip-path="url(#clipPath4)" font-family="sans-serif" stroke="none">name : String</text>
      <text x="27.4989" xml:space="preserve" y="309.3104" clip-path="url(#clipPath4)" font-family="sans-serif" stroke="none"> </text>
      <text x="27.4989" xml:space="preserve" y="322.7166" clip-path="url(#clipPath4)" font-family="sans-serif" stroke="none"> </text>
      <text x="27.4989" xml:space="preserve" y="336.1229" clip-path="url(#clipPath4)" font-family="sans-serif" stroke="none"> </text>
      <text x="27.4989" xml:space="preserve" y="349.5291" clip-path="url(#clipPath4)" font-family="sans-serif" stroke="none"> </text>
      <text x="27.4989" xml:space="preserve" y="362.9354" clip-path="url(#clipPath4)" font-family="sans-serif" stroke="none"> </text>
      <line stroke-linecap="square" clip-path="url(#clipPath4)" fill="none" x1="23" x2="138" y1="370" y2="370" stroke-miterlimit="10"/>
      <text x="27.4989" xml:space="preserve" y="386.3416" clip-path="url(#clipPath4)" font-family="sans-serif" stroke="none"> </text>
      <text x="27.4989" xml:space="preserve" y="399.7479" clip-path="url(#clipPath4)" font-family="sans-serif" stroke="none"> </text>
    </g>
    <g fill="rgb(254,251,223)" text-rendering="geometricPrecision" shape-rendering="geometricPrecision" transform="matrix(1,0,0,1,195,-94)" stroke="rgb(254,251,223)">
      <rect x="22.4989" width="116.5594" height="54.9379" y="114.1277" clip-path="url(#clipPath2)" stroke="none"/>
    </g>
    <g text-rendering="geometricPrecision" stroke-miterlimit="1.45" shape-rendering="geometricPrecision" transform="matrix(1,0,0,1,195,-94)" stroke-linecap="butt">
      <rect fill="none" x="22.4989" width="116.5594" height="54.9379" y="114.1277" clip-path="url(#clipPath2)"/>
      <text x="59.8345" font-size="13px" y="130.8962" clip-path="url(#clipPath5)" font-family="sans-serif" stroke="none" xml:space="preserve">Worker</text>
      <line stroke-linecap="square" clip-path="url(#clipPath5)" fill="none" x1="23" x2="138" y1="138" y2="138" stroke-miterlimit="10"/>
      <text x="27.4989" xml:space="preserve" y="154.5144" clip-path="url(#clipPath5)" font-family="sans-serif" stroke="none">name : String</text>
      <text x="27.4989" xml:space="preserve" y="167.9207" clip-path="url(#clipPath5)" font-family="sans-serif" stroke="none"> </text>
      <text x="27.4989" xml:space="preserve" y="181.3269" clip-path="url(#clipPath5)" font-family="sans-serif" stroke="none"> </text>
      <text x="27.4989" xml:space="preserve" y="194.7332" clip-path="url(#clipPath5)" font-family="sans-serif" stroke="none"> </text>
      <text x="27.4989" xml:space="preserve" y="208.1394" clip-path="url(#clipPath5)" font-family="sans-serif" stroke="none"> </text>
      <text x="27.4989" xml:space="preserve" y="221.5457" clip-path="url(#clipPath5)" font-family="sans-serif" stroke="none"> </text>
      <line stroke-linecap="square" clip-path="url(#clipPath5)" fill="none" x1="23" x2="138" y1="229" y2="229" stroke-miterlimit="10"/>
      <text x="27.4989" xml:space="preserve" y="244.9519" clip-path="url(#clipPath5)" font-family="sans-serif" stroke="none"> </text>
    </g>
    <g fill="rgb(254,251,223)" text-rendering="geometricPrecision" shape-rendering="geometricPrecision" transform="matrix(1,0,0,1,195,-94)" stroke="rgb(254,251,223)">
      <rect x="-179.9562" width="153.7818" height="85.0608" y="223.7562" clip-path="url(#clipPath2)" stroke="none"/>
    </g>
    <g text-rendering="geometricPrecision" stroke-miterlimit="1.45" shape-rendering="geometricPrecision" transform="matrix(1,0,0,1,195,-94)" stroke-linecap="butt">
      <rect fill="none" x="-179.9562" width="153.7818" height="85.0608" y="223.7562" clip-path="url(#clipPath2)"/>
      <text x="-121.4925" font-size="13px" y="240.5247" clip-path="url(#clipPath6)" font-family="sans-serif" stroke="none" xml:space="preserve">Status</text>
      <line stroke-linecap="square" clip-path="url(#clipPath6)" fill="none" x1="-178" x2="-27" y1="248" y2="248" stroke-miterlimit="10"/>
      <text x="-174.9562" xml:space="preserve" y="264.1429" clip-path="url(#clipPath6)" font-family="sans-serif" stroke="none">statusId : String</text>
      <text x="-174.9562" xml:space="preserve" y="277.5491" clip-path="url(#clipPath6)" font-family="sans-serif" stroke="none">completed : Boolean</text>
      <text x="-174.9562" xml:space="preserve" y="290.9554" clip-path="url(#clipPath6)" font-family="sans-serif" stroke="none">status : String</text>
      <text x="-174.9562" xml:space="preserve" y="304.3616" clip-path="url(#clipPath6)" font-family="sans-serif" stroke="none">lastModified : String</text>
      <line stroke-linecap="square" clip-path="url(#clipPath6)" fill="none" x1="-178" x2="-27" y1="311" y2="311" stroke-miterlimit="10"/>
      <text x="-174.9562" xml:space="preserve" y="327.7679" clip-path="url(#clipPath6)" font-family="sans-serif" stroke="none"> </text>
      <path fill="none" d="M32.9539 169.0956 L32.9539 247.4966" clip-path="url(#clipPath2)"/>
      <path d="M32.9539 255.4966 L37.9539 243.4966 L32.9539 246.4966 L27.9539 243.4966 Z" clip-path="url(#clipPath2)" stroke="none"/>
      <text x="-16.1752" xml:space="preserve" y="240.3316" clip-path="url(#clipPath2)" font-family="sans-serif" stroke="none">mainSkill [0..1]</text>
      <path fill="none" d="M121.783 169.0805 L121.783 247.5337" clip-path="url(#clipPath2)"/>
      <path d="M121.783 255.5337 L126.783 243.5337 L121.783 246.5337 L116.783 243.5337 Z" clip-path="url(#clipPath2)" stroke="none"/>
      <text x="36.4373" xml:space="preserve" y="205.3583" clip-path="url(#clipPath2)" font-family="sans-serif" stroke="none">secondarySkills [0..*]</text>
      <path fill="none" d="M15.5035 141.5966 L-55.4202 141.5966" clip-path="url(#clipPath2)"/>
      <path d="M22.5035 141.5966 L15.5035 146.5966 L8.5035 141.5966 L15.5035 136.5966 Z" clip-path="url(#clipPath2)" stroke="none"/>
      <path d="M-63.4202 141.5966 L-51.4202 146.5966 L-54.4202 141.5966 L-51.4202 136.5966 Z" clip-path="url(#clipPath2)" stroke="none"/>
      <text x="-49.8296" xml:space="preserve" y="131.4854" clip-path="url(#clipPath2)" font-family="sans-serif" stroke="none">queue [0..*]</text>
      <path fill="none" d="M-169.5 173.7939 L-169.5 215.7355" clip-path="url(#clipPath2)"/>
      <path d="M-169.5 223.7355 L-164.5 211.7355 L-169.5 214.7355 L-174.5 211.7355 Z" clip-path="url(#clipPath2)" stroke="none"/>
      <text x="-163.9006" xml:space="preserve" y="209.1203" clip-path="url(#clipPath2)" font-family="sans-serif" stroke="none">status [0..1]</text>
    </g>
  </g>
</svg>
