<?xml version="1.0" encoding="UTF-8"?><svg xmlns="http://www.w3.org/2000/svg" xmlns:xlink="http://www.w3.org/1999/xlink" fill-opacity="1" color-rendering="auto" color-interpolation="auto" text-rendering="auto" stroke="black" stroke-linecap="square" width="428" stroke-miterlimit="10" shape-rendering="auto" stroke-opacity="1" fill="black" stroke-dasharray="none" font-weight="normal" stroke-width="1" height="230" font-family="'Dialog'" font-style="normal" stroke-linejoin="miter" font-size="12px" stroke-dashoffset="0" image-rendering="auto">
  <!--Generated by ySVG 2.5-->
  <defs id="genericDefs"/>
  <g>
    <defs id="defs1">
      <clipPath clipPathUnits="userSpaceOnUse" id="clipPath1">
        <path d="M0 0 L428 0 L428 230 L0 230 L0 0 Z"/>
      </clipPath>
      <clipPath clipPathUnits="userSpaceOnUse" id="clipPath2">
        <path d="M-34 94 L394 94 L394 324 L-34 324 L-34 94 Z"/>
      </clipPath>
      <clipPath clipPathUnits="userSpaceOnUse" id="clipPath3">
        <path d="M225 109 L225 173 L378 173 L378 109 Z"/>
      </clipPath>
      <clipPath clipPathUnits="userSpaceOnUse" id="clipPath4">
        <path d="M22 255 L22 308 L138 308 L138 255 Z"/>
      </clipPath>
      <clipPath clipPathUnits="userSpaceOnUse" id="clipPath5">
        <path d="M22 109 L22 163 L138 163 L138 109 Z"/>
      </clipPath>
      <clipPath clipPathUnits="userSpaceOnUse" id="clipPath6">
        <path d="M225 223 L225 308 L378 308 L378 223 Z"/>
      </clipPath>
    </defs>
    <g fill="white" text-rendering="geometricPrecision" shape-rendering="geometricPrecision" transform="translate(34,-94)" stroke="white">
      <rect x="-34" width="428" height="230" y="94" clip-path="url(#clipPath2)" stroke="none"/>
    </g>
    <g fill="rgb(254,251,223)" text-rendering="geometricPrecision" shape-rendering="geometricPrecision" transform="matrix(1,0,0,1,34,-94)" stroke="rgb(254,251,223)">
      <rect x="225.2136" width="153.7818" height="64.4406" y="109.3763" clip-path="url(#clipPath2)" stroke="none"/>
    </g>
    <g text-rendering="geometricPrecision" stroke-miterlimit="1.45" shape-rendering="geometricPrecision" transform="matrix(1,0,0,1,34,-94)" stroke-linecap="butt">
      <rect fill="none" x="225.2136" width="153.7818" height="64.4406" y="109.3763" clip-path="url(#clipPath2)"/>
      <text x="291.6245" font-size="13px" y="126.1449" clip-path="url(#clipPath3)" font-family="sans-serif" stroke="none" xml:space="preserve">Job</text>
      <line stroke-linecap="square" clip-path="url(#clipPath3)" fill="none" x1="226" x2="377" y1="133" y2="133" stroke-miterlimit="10"/>
      <text x="230.2136" xml:space="preserve" y="149.763" clip-path="url(#clipPath3)" font-family="sans-serif" stroke="none">jobId : String</text>
      <text x="230.2136" xml:space="preserve" y="163.1693" clip-path="url(#clipPath3)" font-family="sans-serif" stroke="none">tags : String [ ]</text>
      <text x="230.2136" xml:space="preserve" y="176.5755" clip-path="url(#clipPath3)" font-family="sans-serif" stroke="none"> </text>
      <text x="230.2136" xml:space="preserve" y="189.9818" clip-path="url(#clipPath3)" font-family="sans-serif" stroke="none"> </text>
      <text x="230.2136" xml:space="preserve" y="203.388" clip-path="url(#clipPath3)" font-family="sans-serif" stroke="none"> </text>
      <text x="230.2136" xml:space="preserve" y="216.7943" clip-path="url(#clipPath3)" font-family="sans-serif" stroke="none"> </text>
      <line stroke-linecap="square" clip-path="url(#clipPath3)" fill="none" x1="226" x2="377" y1="224" y2="224" stroke-miterlimit="10"/>
      <text x="230.2136" xml:space="preserve" y="240.2005" clip-path="url(#clipPath3)" font-family="sans-serif" stroke="none"> </text>
    </g>
    <g fill="rgb(254,251,223)" text-rendering="geometricPrecision" shape-rendering="geometricPrecision" transform="matrix(1,0,0,1,34,-94)" stroke="rgb(254,251,223)">
      <rect x="22.4989" width="116.5594" height="53.2995" y="255.5174" clip-path="url(#clipPath2)" stroke="none"/>
    </g>
    <g text-rendering="geometricPrecision" stroke-miterlimit="1.45" shape-rendering="geometricPrecision" transform="matrix(1,0,0,1,34,-94)" stroke-linecap="butt">
      <rect fill="none" x="22.4989" width="116.5594" height="53.2995" y="255.5174" clip-path="url(#clipPath2)"/>
      <text x="68.8608" font-size="13px" y="272.286" clip-path="url(#clipPath4)" font-family="sans-serif" stroke="none" xml:space="preserve">Skill</text>
      <line stroke-linecap="square" clip-path="url(#clipPath4)" fill="none" x1="23" x2="138" y1="280" y2="280" stroke-miterlimit="10"/>
      <text x="27.4989" xml:space="preserve" y="295.9041" clip-path="url(#clipPath4)" font-family="sans-serif" stroke="none">name : String</text>
      <text x="27.4989" xml:space="preserve" y="309.3104" clip-path="url(#clipPath4)" font-family="sans-serif" stroke="none"> </text>
      <text x="27.4989" xml:space="preserve" y="322.7166" clip-path="url(#clipPath4)" font-family="sans-serif" stroke="none"> </text>
      <text x="27.4989" xml:space="preserve" y="336.1229" clip-path="url(#clipPath4)" font-family="sans-serif" stroke="none"> </text>
      <text x="27.4989" xml:space="preserve" y="349.5291" clip-path="url(#clipPath4)" font-family="sans-serif" stroke="none"> </text>
      <text x="27.4989" xml:space="preserve" y="362.9354" clip-path="url(#clipPath4)" font-family="sans-serif" stroke="none"> </text>
      <line stroke-linecap="square" clip-path="url(#clipPath4)" fill="none" x1="23" x2="138" y1="370" y2="370" stroke-miterlimit="10"/>
      <text x="27.4989" xml:space="preserve" y="386.3416" clip-path="url(#clipPath4)" font-family="sans-serif" stroke="none"> </text>
      <text x="27.4989" xml:space="preserve" y="399.7479" clip-path="url(#clipPath4)" font-family="sans-serif" stroke="none"> </text>
    </g>
    <g fill="rgb(254,251,223)" text-rendering="geometricPrecision" shape-rendering="geometricPrecision" transform="matrix(1,0,0,1,34,-94)" stroke="rgb(254,251,223)">
      <rect x="22.4989" width="116.5594" height="54.9379" y="109.3763" clip-path="url(#clipPath2)" stroke="none"/>
    </g>
    <g text-rendering="geometricPrecision" stroke-miterlimit="1.45" shape-rendering="geometricPrecision" transform="matrix(1,0,0,1,34,-94)" stroke-linecap="butt">
      <rect fill="none" x="22.4989" width="116.5594" height="54.9379" y="109.3763" clip-path="url(#clipPath2)"/>
      <text x="59.8345" font-size="13px" y="126.1449" clip-path="url(#clipPath5)" font-family="sans-serif" stroke="none" xml:space="preserve">Worker</text>
      <line stroke-linecap="square" clip-path="url(#clipPath5)" fill="none" x1="23" x2="138" y1="133" y2="133" stroke-miterlimit="10"/>
      <text x="27.4989" xml:space="preserve" y="149.763" clip-path="url(#clipPath5)" font-family="sans-serif" stroke="none">name : String</text>
      <text x="27.4989" xml:space="preserve" y="163.1693" clip-path="url(#clipPath5)" font-family="sans-serif" stroke="none"> </text>
      <text x="27.4989" xml:space="preserve" y="176.5755" clip-path="url(#clipPath5)" font-family="sans-serif" stroke="none"> </text>
      <text x="27.4989" xml:space="preserve" y="189.9818" clip-path="url(#clipPath5)" font-family="sans-serif" stroke="none"> </text>
      <text x="27.4989" xml:space="preserve" y="203.388" clip-path="url(#clipPath5)" font-family="sans-serif" stroke="none"> </text>
      <text x="27.4989" xml:space="preserve" y="216.7943" clip-path="url(#clipPath5)" font-family="sans-serif" stroke="none"> </text>
      <line stroke-linecap="square" clip-path="url(#clipPath5)" fill="none" x1="23" x2="138" y1="224" y2="224" stroke-miterlimit="10"/>
      <text x="27.4989" xml:space="preserve" y="240.2005" clip-path="url(#clipPath5)" font-family="sans-serif" stroke="none"> </text>
    </g>
    <g fill="rgb(254,251,223)" text-rendering="geometricPrecision" shape-rendering="geometricPrecision" transform="matrix(1,0,0,1,34,-94)" stroke="rgb(254,251,223)">
      <rect x="225.2136" width="153.7818" height="85.0608" y="223.7562" clip-path="url(#clipPath2)" stroke="none"/>
    </g>
    <g text-rendering="geometricPrecision" stroke-miterlimit="1.45" shape-rendering="geometricPrecision" transform="matrix(1,0,0,1,34,-94)" stroke-linecap="butt">
      <rect fill="none" x="225.2136" width="153.7818" height="85.0608" y="223.7562" clip-path="url(#clipPath2)"/>
      <text x="283.6772" font-size="13px" y="240.5247" clip-path="url(#clipPath6)" font-family="sans-serif" stroke="none" xml:space="preserve">Status</text>
      <line stroke-linecap="square" clip-path="url(#clipPath6)" fill="none" x1="226" x2="377" y1="248" y2="248" stroke-miterlimit="10"/>
      <text x="230.2136" xml:space="preserve" y="264.1429" clip-path="url(#clipPath6)" font-family="sans-serif" stroke="none">statusId : String</text>
      <text x="230.2136" xml:space="preserve" y="277.5491" clip-path="url(#clipPath6)" font-family="sans-serif" stroke="none">completed : Boolean</text>
      <text x="230.2136" xml:space="preserve" y="290.9554" clip-path="url(#clipPath6)" font-family="sans-serif" stroke="none">status : String</text>
      <text x="230.2136" xml:space="preserve" y="304.3616" clip-path="url(#clipPath6)" font-family="sans-serif" stroke="none">lastModified : String</text>
      <line stroke-linecap="square" clip-path="url(#clipPath6)" fill="none" x1="226" x2="377" y1="311" y2="311" stroke-miterlimit="10"/>
      <text x="230.2136" xml:space="preserve" y="327.7679" clip-path="url(#clipPath6)" font-family="sans-serif" stroke="none"> </text>
      <path fill="none" d="M32.9539 164.2809 L32.9539 247.5471" clip-path="url(#clipPath2)"/>
      <path d="M32.9539 255.5471 L37.9539 243.5471 L32.9539 246.5471 L27.9539 243.5471 Z" clip-path="url(#clipPath2)" stroke="none"/>
      <text x="-16.1752" xml:space="preserve" y="239.8776" clip-path="url(#clipPath2)" font-family="sans-serif" stroke="none">mainSkill [0..1]</text>
      <path fill="none" d="M121.783 164.297 L121.783 247.537" clip-path="url(#clipPath2)"/>
      <path d="M121.783 255.537 L126.783 243.537 L121.783 246.537 L116.783 243.537 Z" clip-path="url(#clipPath2)" stroke="none"/>
      <text x="36.4373" xml:space="preserve" y="202.09" clip-path="url(#clipPath2)" font-family="sans-serif" stroke="none">secondarySkills [0..*]</text>
      <path fill="none" d="M146.0709 141.5966 L217.1994 141.5966" clip-path="url(#clipPath2)"/>
      <path d="M139.0709 141.5966 L146.0709 136.5966 L153.0709 141.5966 L146.0709 146.5966 Z" clip-path="url(#clipPath2)" stroke="none"/>
      <path d="M225.1994 141.5966 L213.1994 136.5966 L216.1994 141.5966 L213.1994 146.5966 Z" clip-path="url(#clipPath2)" stroke="none"/>
      <text x="157.8609" xml:space="preserve" y="130.8777" clip-path="url(#clipPath2)" font-family="sans-serif" stroke="none">queue [0..*]</text>
      <path fill="none" d="M239.0089 180.8558 L239.0089 215.7831" clip-path="url(#clipPath2)"/>
      <path d="M239.0089 173.8558 L244.0089 180.8558 L239.0089 187.8558 L234.0089 180.8558 Z" clip-path="url(#clipPath2)" stroke="none"/>
      <path d="M239.0089 223.7831 L244.0089 211.7831 L239.0089 214.7831 L234.0089 211.7831 Z" clip-path="url(#clipPath2)" stroke="none"/>
      <text x="244.6083" xml:space="preserve" y="209.1203" clip-path="url(#clipPath2)" font-family="sans-serif" stroke="none">status [0..1]</text>
    </g>
  </g>
</svg>
